<svg viewBox="-20 -20 360 120" xmlns="http://www.w3.org/2000/svg">
<style>
.black { font: 3px serif; }
</style>
<path d="M172.07077,37.748978 L176.08138,33.595867 L174.48997,28.04602 L168.88797,26.649284 L164.87737,30.802395 L166.46875,36.35224 z" fill="#fdfdfd" stroke="black" stroke-width="0.3"/>
<path d="M83.20225,36.203854 L87.21286,32.050743 L85.62147,26.500896 L80.01946,25.10416 L76.00885,29.25727 L77.60024,34.807117 z" fill="#fdfdfd" stroke="black" stroke-width="0.3"/>
<path d="M92.814865,33.44748 L96.82548,29.294369 L95.234085,23.744522 L89.63208,22.347786 L85.62147,26.500896 L87.21286,32.050743 z" fill="#fdfdfd" stroke="black" stroke-width="0.3"/>
<path d="M164.87738,30.802399 L168.88799,26.649288 L167.29659,21.099442 L161.69458,19.702705 L157.68398,23.855816 L159.27536,29.40566 z" fill="#fdfdfd" stroke="black" stroke-width="0.3"/>
<path d="M174.48999,28.046024 L178.5006,23.892914 L176.9092,18.343067 L171.30719,16.946331 L167.29659,21.099442 L168.88797,26.649286 z" fill="#fdfdfd" stroke="black" stroke-width="0.3"/>
<path d="M85.62147,26.500895 L89.63208,22.347784 L88.04069,16.797937 L82.43868,15.401201 L78.42807,19.554312 L80.01946,25.104156 z" fill="#fdfdfd" stroke="black" stroke-width="0.3"/>
<path d="M162.45816,40.505352 L166.46877,36.35224 L164.87737,30.802395 L159.27536,29.405659 L155.26476,33.55877 L156.85614,39.108616 z" fill="#fdfdfd" stroke="black" stroke-width="0.3"/>
<text class="black" dominant-baseline="middle" text-anchor="middle" x="170.47937" y="32.19913">
1
</text>
<text class="black" dominant-baseline="middle" text-anchor="middle" x="81.610855" y="30.654007">
2
</text>
<text class="black" dominant-baseline="middle" text-anchor="middle" x="91.22347" y="27.897633">
3
</text>
<text class="black" dominant-baseline="middle" text-anchor="middle" x="163.28598" y="25.252552">
4
</text>
<text class="black" dominant-baseline="middle" text-anchor="middle" x="172.89859" y="22.496178">
5
</text>
<text class="black" dominant-baseline="middle" text-anchor="middle" x="84.030075" y="20.951048">
6
</text>
<text class="black" dominant-baseline="middle" text-anchor="middle" x="160.86676" y="34.955505">
0
</text>
</svg>