<svg viewBox="-20 -20 360 120" xmlns="http://www.w3.org/2000/svg">
<style>
.black { font: 3px serif; }
</style>
<path d="M1.5913932,5.549847 L5.602005,1.3967361 L4.0106115,-4.153111 L-1.5913941,-5.5498466 L-5.602005,-1.396737 L-4.010613,4.153109 z" fill="#e0d4a3" stroke="black" stroke-width="0.3"/>
<path d="M11.20401,2.7934732 L15.214622,-1.3596377 L13.623228,-6.909485 L8.021222,-8.306221 L4.0106115,-4.153111 L5.6020036,1.3967352 z" fill="#e0d4a3" stroke="black" stroke-width="0.3"/>
<path d="M8.784791,12.496429 L12.795403,8.343319 L11.20401,2.7934718 L5.602004,1.3967361 L1.591393,5.5498457 L3.182785,11.099691 z" fill="#e0d4a3" stroke="black" stroke-width="0.3"/>
<path d="M18.397408,9.740057 L22.40802,5.5869455 L20.816628,0.037098408 L15.214621,-1.3596373 L11.20401,2.7934723 L12.795403,8.343319 z" fill="#e0d4a3" stroke="black" stroke-width="0.3"/>
<path d="M28.010025,6.983682 L32.020638,2.8305712 L30.429245,-2.719276 L24.827238,-4.1160116 L20.816628,0.03709805 L22.40802,5.586944 z" fill="#e0d4a3" stroke="black" stroke-width="0.3"/>
<path d="M37.62264,4.2273088 L41.63325,0.07419777 L40.04186,-5.4756494 L34.439854,-6.872385 L30.429241,-2.7192755 L32.020634,2.8305707 z" fill="#e0baa1" stroke="black" stroke-width="0.3"/>
<path d="M47.235256,1.4709344 L51.24587,-2.6821766 L49.654476,-8.232023 L44.05247,-9.628759 L40.04186,-5.47565 L41.63325,0.07419634 z" fill="#e0baa1" stroke="black" stroke-width="0.3"/>
<path d="M6.365573,22.199387 L10.376184,18.046276 L8.784791,12.496429 L3.1827855,11.099693 L-0.82782555,15.252803 L0.7635665,20.802649 z" fill="#e0d4a3" stroke="black" stroke-width="0.3"/>
<path d="M15.978189,19.443012 L19.9888,15.289902 L18.397408,9.740055 L12.795402,8.343319 L8.784791,12.4964285 L10.376183,18.046274 z" fill="#e0d4a3" stroke="black" stroke-width="0.3"/>
<path d="M25.590805,16.68664 L29.601418,12.533528 L28.010025,6.983681 L22.408018,5.5869455 L18.397408,9.740055 L19.9888,15.289902 z" fill="#e0d4a3" stroke="black" stroke-width="0.3"/>
<path d="M35.203423,13.930265 L39.214035,9.777155 L37.622643,4.227308 L32.020638,2.8305721 L28.010025,6.9836817 L29.601418,12.533527 z" fill="#e0baa1" stroke="black" stroke-width="0.3"/>
<path d="M44.81604,11.173891 L48.826653,7.0207806 L47.23526,1.4709334 L41.633255,0.07419777 L37.622643,4.2273073 L39.214035,9.777153 z" fill="#e0baa1" stroke="black" stroke-width="0.3"/>
<path d="M54.428658,8.417517 L58.43927,4.264406 L56.847878,-1.2854409 L51.245872,-2.6821766 L47.23526,1.4709331 L48.826653,7.020779 z" fill="#e0baa1" stroke="black" stroke-width="0.3"/>
<path d="M64.041275,5.6611447 L68.05189,1.5080338 L66.460495,-4.0418134 L60.85849,-5.438549 L56.847878,-1.2854394 L58.43927,4.2644067 z" fill="#c1bae0" stroke="black" stroke-width="0.3"/>
<path d="M73.653885,2.9047704 L77.6645,-1.2483406 L76.073105,-6.7981877 L70.4711,-8.194923 L66.46049,-4.041814 L68.05188,1.5080323 z" fill="#c1bae0" stroke="black" stroke-width="0.3"/>
<path d="M13.558971,29.145971 L17.569584,24.99286 L15.978189,19.443014 L10.3761835,18.046278 L6.365573,22.199389 L7.956965,27.749233 z" fill="#e0d4a3" stroke="black" stroke-width="0.3"/>
<path d="M23.171587,26.389599 L27.1822,22.236488 L25.590805,16.686642 L19.9888,15.289906 L15.978189,19.443016 L17.569582,24.99286 z" fill="#e0d4a3" stroke="black" stroke-width="0.3"/>
<path d="M32.784206,23.633224 L36.794815,19.480114 L35.203423,13.930267 L29.601418,12.533531 L25.590807,16.686642 L27.1822,22.236486 z" fill="#e0d4a3" stroke="black" stroke-width="0.3"/>
<path d="M42.39682,20.87685 L46.407433,16.72374 L44.81604,11.173893 L39.214035,9.777157 L35.203423,13.930266 L36.794815,19.480112 z" fill="#e0baa1" stroke="black" stroke-width="0.3"/>
<path d="M52.009438,18.120476 L56.02005,13.967365 L54.428658,8.417519 L48.826653,7.0207825 L44.81604,11.173892 L46.407433,16.723738 z" fill="#e0baa1" stroke="black" stroke-width="0.3"/>
<path d="M61.622055,15.364103 L65.63267,11.210992 L64.041275,5.6611447 L58.43927,4.264409 L54.428658,8.417519 L56.02005,13.967365 z" fill="#c1bae0" stroke="black" stroke-width="0.3"/>
<path d="M71.23467,12.607729 L75.245285,8.454618 L73.65389,2.9047713 L68.05189,1.5080357 L64.041275,5.661145 L65.63267,11.210991 z" fill="#c1bae0" stroke="black" stroke-width="0.3"/>
<path d="M80.84729,9.851355 L84.8579,5.698244 L83.26651,0.14839697 L77.664505,-1.2483387 L73.65389,2.9047709 L75.245285,8.454617 z" fill="#c1bae0" stroke="black" stroke-width="0.3"/>
<path d="M90.45991,7.0949807 L94.47052,2.9418697 L92.87913,-2.6079774 L87.27712,-4.004713 L83.26651,0.14839661 L84.8579,5.6982427 z" fill="#aae4e0" stroke="black" stroke-width="0.3"/>
<path d="M100.072525,4.3386064 L104.08314,0.18549538 L102.491745,-5.3643517 L96.88974,-6.7610874 L92.87913,-2.6079779 L94.47052,2.9418683 z" fill="#aae4e0" stroke="black" stroke-width="0.3"/>
<path d="M109.68514,1.5822339 L113.695755,-2.570877 L112.10436,-8.120724 L106.50236,-9.51746 L102.491745,-5.3643503 L104.08314,0.18549585 z" fill="#aae4e0" stroke="black" stroke-width="0.3"/>
<path d="M11.139752,38.848927 L15.150364,34.695816 L13.55897,29.14597 L7.956965,27.749233 L3.946354,31.902344 L5.537746,37.45219 z" fill="#e0d4a3" stroke="black" stroke-width="0.3"/>
<path d="M20.752369,36.092552 L24.762981,31.939442 L23.171589,26.389595 L17.569582,24.992859 L13.558971,29.14597 L15.150364,34.695816 z" fill="#e0d4a3" stroke="black" stroke-width="0.3"/>
<path d="M30.364985,33.336178 L34.375595,29.183067 L32.784203,23.63322 L27.182198,22.236485 L23.171587,26.389595 L24.76298,31.93944 z" fill="#e0d4a3" stroke="black" stroke-width="0.3"/>
<path d="M39.9776,30.579805 L43.988213,26.426695 L42.39682,20.876848 L36.794815,19.480112 L32.784203,23.633223 L34.375595,29.183067 z" fill="#e0baa1" stroke="black" stroke-width="0.3"/>
<path d="M49.590218,27.823431 L53.60083,23.67032 L52.009438,18.120474 L46.407433,16.723738 L42.39682,20.876848 L43.988213,26.426693 z" fill="#e0baa1" stroke="black" stroke-width="0.3"/>
<path d="M59.202835,25.067057 L63.213448,20.913946 L61.622055,15.3640995 L56.02005,13.967363 L52.009438,18.120474 L53.60083,23.670319 z" fill="#e0baa1" stroke="black" stroke-width="0.3"/>
<path d="M68.81545,22.310684 L72.826065,18.157574 L71.23467,12.607727 L65.63267,11.210991 L61.622055,15.3641 L63.213448,20.913946 z" fill="#c1bae0" stroke="black" stroke-width="0.3"/>
<path d="M78.42806,19.55431 L82.438675,15.401199 L80.84728,9.851353 L75.24528,8.454617 L71.234665,12.607726 L72.82606,18.157572 z" fill="#c1bae0" stroke="black" stroke-width="0.3"/>
<path d="M88.04069,16.797935 L92.0513,12.644825 L90.45991,7.094978 L84.8579,5.698242 L80.84729,9.851352 L82.43868,15.401197 z" fill="#aae4e0" stroke="black" stroke-width="0.3"/>
<path d="M97.6533,14.041561 L101.66391,9.888451 L100.07252,4.3386035 L94.47051,2.9418678 L90.4599,7.0949774 L92.05129,12.644823 z" fill="#aae4e0" stroke="black" stroke-width="0.3"/>
<path d="M107.26592,11.285187 L111.276535,7.1320763 L109.68514,1.5822291 L104.08314,0.18549347 L100.072525,4.338603 L101.66392,9.888449 z" fill="#aae4e0" stroke="black" stroke-width="0.3"/>
<path d="M116.87853,8.528814 L120.889145,4.375704 L119.29775,-1.1741433 L113.69575,-2.570879 L109.685135,1.5822307 L111.27653,7.1320767 z" fill="#aae4e0" stroke="black" stroke-width="0.3"/>
<path d="M126.49116,5.7724423 L130.50177,1.6193314 L128.91037,-3.9305158 L123.30837,-5.3272514 L119.29776,-1.1741418 L120.88915,4.3757043 z" fill="#e0a0e0" stroke="black" stroke-width="0.3"/>
<path d="M136.10378,3.016068 L140.11438,-1.137043 L138.52298,-6.68689 L132.92097,-8.083626 L128.91037,-3.9305162 L130.50175,1.6193299 z" fill="#e0a0e0" stroke="black" stroke-width="0.3"/>
<path d="M18.333149,45.795513 L22.343761,41.642403 L20.752369,36.092556 L15.150362,34.69582 L11.139751,38.84893 L12.731144,44.398777 z" fill="#e0d4a3" stroke="black" stroke-width="0.3"/>
<path d="M27.945766,43.03914 L31.956379,38.88603 L30.364986,33.33618 L24.76298,31.939445 L20.752369,36.092556 L22.343761,41.642403 z" fill="#e0d4a3" stroke="black" stroke-width="0.3"/>
<path d="M37.558384,40.282764 L41.568996,36.129654 L39.977604,30.579807 L34.3756,29.183071 L30.364986,33.33618 L31.956379,38.88603 z" fill="#e0d4a3" stroke="black" stroke-width="0.3"/>
<path d="M47.170998,37.52639 L51.18161,33.37328 L49.590218,27.823433 L43.988213,26.426697 L39.9776,30.579807 L41.568993,36.129654 z" fill="#e0baa1" stroke="black" stroke-width="0.3"/>
<path d="M56.783615,34.770016 L60.794228,30.616905 L59.202835,25.067059 L53.60083,23.670322 L49.590218,27.823433 L51.18161,33.37328 z" fill="#e0baa1" stroke="black" stroke-width="0.3"/>
<path d="M66.39623,32.01364 L70.406845,27.86053 L68.81545,22.310684 L63.213448,20.913948 L59.202835,25.067059 L60.794228,30.616903 z" fill="#c1bae0" stroke="black" stroke-width="0.3"/>
<path d="M76.00885,29.257269 L80.01946,25.104158 L78.42807,19.554312 L72.826065,18.157576 L68.81545,22.310686 L70.406845,27.86053 z" fill="#c1bae0" stroke="black" stroke-width="0.3"/>
<path d="M85.62147,26.500895 L89.63208,22.347784 L88.04069,16.797937 L82.43868,15.401201 L78.42807,19.554312 L80.01946,25.104156 z" fill="#c1bae0" stroke="black" stroke-width="0.3"/>
<path d="M95.234085,23.74452 L99.2447,19.59141 L97.653305,14.041563 L92.0513,12.644827 L88.04069,16.797937 L89.63208,22.347782 z" fill="#aae4e0" stroke="black" stroke-width="0.3"/>
<path d="M104.8467,20.988146 L108.857315,16.835035 L107.26592,11.285189 L101.66392,9.888453 L97.653305,14.041562 L99.2447,19.591408 z" fill="#aae4e0" stroke="black" stroke-width="0.3"/>
<path d="M114.45932,18.231773 L118.46993,14.078663 L116.87854,8.528816 L111.276535,7.13208 L107.26592,11.28519 L108.857315,16.835035 z" fill="#aae4e0" stroke="black" stroke-width="0.3"/>
<path d="M124.07194,15.475399 L128.08255,11.3222885 L126.49116,5.7724414 L120.88915,4.3757057 L116.87854,8.528815 L118.46993,14.078661 z" fill="#e0a0e0" stroke="black" stroke-width="0.3"/>
<path d="M133.68457,12.719025 L137.69518,8.565914 L136.10378,3.016067 L130.50177,1.6193314 L126.491165,5.772441 L128.08255,11.322287 z" fill="#e0a0e0" stroke="black" stroke-width="0.3"/>
<path d="M143.29718,9.96265 L147.30779,5.80954 L145.71638,0.25969267 L140.11438,-1.137043 L136.10378,3.0160666 L137.69516,8.565912 z" fill="#e0a0e0" stroke="black" stroke-width="0.3"/>
<path d="M152.9098,7.2062764 L156.92041,3.0531654 L155.32901,-2.4966817 L149.727,-3.8934174 L145.7164,0.2596923 L147.30779,5.8095384 z" fill="#e0e0a0" stroke="black" stroke-width="0.3"/>
<path d="M162.52242,4.449902 L166.53302,0.29679108 L164.94162,-5.253056 L159.33961,-6.6497917 L155.32901,-2.4966822 L156.9204,3.053164 z" fill="#a0a0e0" stroke="black" stroke-width="0.3"/>
<path d="M172.13504,1.6935315 L176.14565,-2.4595795 L174.55424,-8.009426 L168.95224,-9.406162 L164.94164,-5.2530527 L166.53302,0.29679346 z" fill="#a0a0e0" stroke="black" stroke-width="0.3"/>
<path d="M15.913933,55.49847 L19.924545,51.34536 L18.33315,45.795513 L12.731145,44.398777 L8.720534,48.551888 L10.311926,54.101734 z" fill="#e0d4a3" stroke="black" stroke-width="0.3"/>
<path d="M25.526548,52.742096 L29.53716,48.588985 L27.945766,43.03914 L22.343761,41.642403 L18.33315,45.795513 L19.924543,51.34536 z" fill="#e0d4a3" stroke="black" stroke-width="0.3"/>
<path d="M35.139164,49.98572 L39.149776,45.83261 L37.558384,40.282764 L31.956377,38.88603 L27.945766,43.03914 L29.537159,48.588985 z" fill="#e0d4a3" stroke="black" stroke-width="0.3"/>
<path d="M44.75178,47.22935 L48.762394,43.07624 L47.171,37.526394 L41.568996,36.129658 L37.558384,40.28277 L39.149776,45.832615 z" fill="#e0baa1" stroke="black" stroke-width="0.3"/>
<path d="M54.3644,44.472973 L58.37501,40.319862 L56.78362,34.770016 L51.181614,33.37328 L47.171,37.52639 L48.762394,43.076237 z" fill="#e0baa1" stroke="black" stroke-width="0.3"/>
<path d="M63.977016,41.716602 L67.987625,37.56349 L66.39623,32.013645 L60.79423,30.616909 L56.78362,34.77002 L58.37501,40.319866 z" fill="#e0baa1" stroke="black" stroke-width="0.3"/>
<path d="M73.58963,38.960228 L77.60024,34.807117 L76.00885,29.25727 L70.406845,27.860535 L66.39623,32.013645 L67.987625,37.56349 z" fill="#c1bae0" stroke="black" stroke-width="0.3"/>
<path d="M83.20225,36.203854 L87.21286,32.050743 L85.62147,26.500896 L80.01946,25.10416 L76.00885,29.25727 L77.60024,34.807117 z" fill="#c1bae0" stroke="black" stroke-width="0.3"/>
<path d="M92.814865,33.44748 L96.82548,29.294369 L95.234085,23.744522 L89.63208,22.347786 L85.62147,26.500896 L87.21286,32.050743 z" fill="#aae4e0" stroke="black" stroke-width="0.3"/>
<path d="M102.42748,30.691105 L106.438095,26.537994 L104.8467,20.988148 L99.2447,19.591412 L95.234085,23.744522 L96.82548,29.294367 z" fill="#aae4e0" stroke="black" stroke-width="0.3"/>
<path d="M112.0401,27.93473 L116.05071,23.78162 L114.45932,18.231773 L108.857315,16.835037 L104.8467,20.988148 L106.438095,26.537992 z" fill="#aae4e0" stroke="black" stroke-width="0.3"/>
<path d="M121.65272,25.178358 L125.66333,21.025248 L124.07194,15.475401 L118.46993,14.078665 L114.45932,18.231775 L116.05071,23.78162 z" fill="#aae4e0" stroke="black" stroke-width="0.3"/>
<path d="M131.26534,22.421986 L135.27594,18.268875 L133.68454,12.719028 L128.08253,11.322292 L124.07193,15.475402 L125.66332,21.025248 z" fill="#e0a0e0" stroke="black" stroke-width="0.3"/>
<path d="M140.87796,19.665611 L144.88857,15.512501 L143.29716,9.962654 L137.69516,8.565918 L133.68456,12.7190275 L135.27594,18.268873 z" fill="#e0a0e0" stroke="black" stroke-width="0.3"/>
<path d="M150.49057,16.909237 L154.50117,12.756126 L152.90977,7.2062793 L147.30777,5.8095436 L143.29716,9.962653 L144.88855,15.512499 z" fill="#a0a0e0" stroke="black" stroke-width="0.3"/>
<path d="M160.1032,14.152863 L164.1138,9.999752 L162.5224,4.449905 L156.9204,3.0531693 L152.90979,7.206279 L154.50117,12.7561245 z" fill="#a0a0e0" stroke="black" stroke-width="0.3"/>
<path d="M169.7158,11.396488 L173.72641,7.2433777 L172.13501,1.6935306 L166.533,0.2967949 L162.5224,4.4499044 L164.11378,9.99975 z" fill="#a0a0e0" stroke="black" stroke-width="0.3"/>
<path d="M179.32843,8.640114 L183.33904,4.4870033 L181.74763,-1.0628438 L176.14563,-2.4595795 L172.13503,1.6935302 L173.72641,7.2433763 z" fill="#a0a0e0" stroke="black" stroke-width="0.3"/>
<path d="M188.94104,5.88374 L192.95164,1.730629 L191.36024,-3.8192182 L185.75824,-5.215954 L181.74763,-1.0628442 L183.33902,4.487002 z" fill="#e0a0a0" stroke="black" stroke-width="0.3"/>
<path d="M198.55367,3.1273656 L202.56427,-1.0257454 L200.97287,-6.5755925 L195.37086,-7.972328 L191.36026,-3.8192186 L192.95164,1.7306275 z" fill="#e0a0a0" stroke="black" stroke-width="0.3"/>
<path d="M23.10733,62.445053 L27.117943,58.291943 L25.52655,52.742096 L19.924543,51.34536 L15.913933,55.49847 L17.505325,61.048317 z" fill="#e0d4a3" stroke="black" stroke-width="0.3"/>
<path d="M32.719948,59.68868 L36.73056,55.53557 L35.139168,49.98572 L29.53716,48.588985 L25.52655,52.742096 L27.117943,58.291943 z" fill="#e0d4a3" stroke="black" stroke-width="0.3"/>
<path d="M42.332565,56.932304 L46.343178,52.779194 L44.751785,47.229347 L39.14978,45.83261 L35.139168,49.98572 L36.73056,55.53557 z" fill="#e0d4a3" stroke="black" stroke-width="0.3"/>
<path d="M51.94518,54.17593 L55.95579,50.02282 L54.3644,44.472973 L48.762394,43.076237 L44.75178,47.229347 L46.343174,52.779194 z" fill="#e0baa1" stroke="black" stroke-width="0.3"/>
<path d="M61.557796,51.419556 L65.568405,47.266445 L63.977016,41.7166 L58.37501,40.319862 L54.3644,44.472973 L55.95579,50.02282 z" fill="#e0baa1" stroke="black" stroke-width="0.3"/>
<path d="M71.17042,48.66318 L75.18103,44.51007 L73.58964,38.960224 L67.98763,37.563488 L63.97702,41.7166 L65.56841,47.266445 z" fill="#c1bae0" stroke="black" stroke-width="0.3"/>
<path d="M80.78303,45.90681 L84.79364,41.7537 L83.20225,36.203854 L77.60024,34.807117 L73.58963,38.960228 L75.18102,44.510075 z" fill="#c1bae0" stroke="black" stroke-width="0.3"/>
<path d="M90.39565,43.150433 L94.406265,38.997322 L92.81487,33.447475 L87.21287,32.05074 L83.202255,36.20385 L84.79365,41.753696 z" fill="#c1bae0" stroke="black" stroke-width="0.3"/>
<path d="M100.00826,40.394062 L104.018875,36.24095 L102.42748,30.691105 L96.82548,29.294369 L92.814865,33.44748 L94.40626,38.997326 z" fill="#aae4e0" stroke="black" stroke-width="0.3"/>
<path d="M109.62089,37.637684 L113.6315,33.484573 L112.04011,27.934727 L106.4381,26.53799 L102.42749,30.691101 L104.01888,36.240948 z" fill="#aae4e0" stroke="black" stroke-width="0.3"/>
<path d="M119.2335,34.881313 L123.24411,30.728203 L121.65272,25.178356 L116.05071,23.78162 L112.0401,27.93473 L113.63149,33.484577 z" fill="#aae4e0" stroke="black" stroke-width="0.3"/>
<path d="M128.84613,32.12494 L132.85674,27.971828 L131.26534,22.421982 L125.66334,21.025246 L121.652725,25.178356 L123.24412,30.7282 z" fill="#e0a0e0" stroke="black" stroke-width="0.3"/>
<path d="M138.45874,29.368565 L142.46935,25.215454 L140.87794,19.665607 L135.27594,18.268871 L131.26534,22.421982 L132.85672,27.971827 z" fill="#e0a0e0" stroke="black" stroke-width="0.3"/>
<path d="M148.07135,26.61219 L152.08195,22.45908 L150.49055,16.909233 L144.88855,15.512497 L140.87794,19.665607 L142.46933,25.215452 z" fill="#e0a0e0" stroke="black" stroke-width="0.3"/>
<path d="M157.68398,23.855816 L161.69458,19.702705 L160.10318,14.152859 L154.50117,12.756123 L150.49057,16.909233 L152.08195,22.459078 z" fill="#e0e0a0" stroke="black" stroke-width="0.3"/>
<path d="M167.29659,21.099442 L171.30719,16.946331 L169.71579,11.396484 L164.11378,9.999748 L160.10318,14.152858 L161.69456,19.702703 z" fill="#a0a0e0" stroke="black" stroke-width="0.3"/>
<path d="M176.90921,18.343071 L180.91982,14.1899605 L179.32841,8.640114 L173.72641,7.2433777 L169.7158,11.396487 L171.30719,16.946333 z" fill="#a0a0e0" stroke="black" stroke-width="0.3"/>
<path d="M186.52182,15.586697 L190.53242,11.433586 L188.94102,5.883739 L183.33902,4.4870033 L179.32841,8.640113 L180.9198,14.189959 z" fill="#e0a0a0" stroke="black" stroke-width="0.3"/>
<path d="M196.13445,12.830322 L200.14505,8.677212 L198.55365,3.1273646 L192.95164,1.730629 L188.94104,5.8837385 L190.53242,11.433584 z" fill="#e0a0a0" stroke="black" stroke-width="0.3"/>
<path d="M205.74706,10.073948 L209.75766,5.9208374 L208.16626,0.37099028 L202.56425,-1.0257454 L198.55365,3.1273642 L200.14503,8.67721 z" fill="#e0a0a0" stroke="black" stroke-width="0.3"/>
<path d="M215.35966,7.317574 L219.37027,3.164463 L217.77887,-2.385384 L212.17686,-3.7821198 L208.16626,0.37098992 L209.75764,5.920836 z" fill="#a0e0a0" stroke="black" stroke-width="0.3"/>
<path d="M224.97229,4.5611997 L228.9829,0.40808868 L227.3915,-5.1417584 L221.78949,-6.538494 L217.77888,-2.3853846 L219.37027,3.1644616 z" fill="#a0e0a0" stroke="black" stroke-width="0.3"/>
<path d="M234.5849,1.8048253 L238.5955,-2.3482857 L237.0041,-7.898133 L231.4021,-9.294868 L227.3915,-5.141759 L228.98288,0.40808725 z" fill="#a0e0a0" stroke="black" stroke-width="0.3"/>
<path d="M20.68811,72.14801 L24.698723,67.994896 L23.10733,62.44505 L17.505323,61.048313 L13.494713,65.20142 L15.086105,70.75127 z" fill="#e0d4a3" stroke="black" stroke-width="0.3"/>
<path d="M30.300728,69.39163 L34.31134,65.238525 L32.719948,59.688675 L27.11794,58.29194 L23.10733,62.44505 L24.698723,67.994896 z" fill="#e0d4a3" stroke="black" stroke-width="0.3"/>
<path d="M39.913345,66.63526 L43.923958,62.482147 L42.332565,56.9323 L36.73056,55.535564 L32.719948,59.688675 L34.31134,65.23852 z" fill="#e0d4a3" stroke="black" stroke-width="0.3"/>
<path d="M49.525963,63.878887 L53.536575,59.725777 L51.945183,54.17593 L46.343178,52.779194 L42.332565,56.932304 L43.923958,62.48215 z" fill="#e0baa1" stroke="black" stroke-width="0.3"/>
<path d="M59.138577,61.12251 L63.14919,56.9694 L61.557796,51.41955 L55.95579,50.022816 L51.94518,54.175926 L53.53657,59.725773 z" fill="#e0baa1" stroke="black" stroke-width="0.3"/>
<path d="M68.7512,58.36614 L72.76181,54.213028 L71.17042,48.66318 L65.56841,47.266445 L61.5578,51.419556 L63.149193,56.969402 z" fill="#e0baa1" stroke="black" stroke-width="0.3"/>
<path d="M78.36381,55.609764 L82.37442,51.456654 L80.78303,45.906807 L75.18102,44.51007 L71.17041,48.66318 L72.7618,54.213028 z" fill="#c1bae0" stroke="black" stroke-width="0.3"/>
<path d="M87.976425,52.85339 L91.98704,48.70028 L90.395645,43.150433 L84.79364,41.753696 L80.78303,45.906807 L82.37442,51.456654 z" fill="#c1bae0" stroke="black" stroke-width="0.3"/>
<path d="M97.58904,50.097015 L101.599655,45.943905 L100.00826,40.39406 L94.40626,38.997322 L90.395645,43.150433 L91.98704,48.70028 z" fill="#aae4e0" stroke="black" stroke-width="0.3"/>
<path d="M107.20166,47.34064 L111.21227,43.18753 L109.62088,37.637684 L104.018875,36.240948 L100.00826,40.39406 L101.599655,45.943905 z" fill="#aae4e0" stroke="black" stroke-width="0.3"/>
<path d="M116.81428,44.584267 L120.82489,40.431156 L119.2335,34.88131 L113.63149,33.484573 L109.62088,37.637684 L111.21227,43.18753 z" fill="#aae4e0" stroke="black" stroke-width="0.3"/>
<path d="M126.426895,41.827892 L130.4375,37.67478 L128.84612,32.124935 L123.24411,30.728199 L119.2335,34.88131 L120.82489,40.431156 z" fill="#aae4e0" stroke="black" stroke-width="0.3"/>
<path d="M136.03952,39.07152 L140.05013,34.91841 L138.45872,29.368565 L132.85672,27.971828 L128.84612,32.12494 L130.4375,37.674786 z" fill="#e0a0e0" stroke="black" stroke-width="0.3"/>
<path d="M145.65213,36.315147 L149.66273,32.162037 L148.07133,26.61219 L142.46933,25.215454 L138.45872,29.368565 L140.05011,34.91841 z" fill="#e0a0e0" stroke="black" stroke-width="0.3"/>
<path d="M155.26474,33.558773 L159.27534,29.405663 L157.68394,23.855816 L152.08194,22.45908 L148.07133,26.61219 L149.66272,32.162037 z" fill="#a0a0e0" stroke="black" stroke-width="0.3"/>
<path d="M164.87738,30.802399 L168.88799,26.649288 L167.29659,21.099442 L161.69458,19.702705 L157.68398,23.855816 L159.27536,29.40566 z" fill="#a0a0e0" stroke="black" stroke-width="0.3"/>
<path d="M174.48999,28.046024 L178.5006,23.892914 L176.9092,18.343067 L171.30719,16.946331 L167.29659,21.099442 L168.88797,26.649286 z" fill="#a0a0e0" stroke="black" stroke-width="0.3"/>
<path d="M184.1026,25.28965 L188.1132,21.13654 L186.5218,15.586693 L180.9198,14.189957 L176.9092,18.343067 L178.50058,23.892912 z" fill="#a0a0e0" stroke="black" stroke-width="0.3"/>
<path d="M193.71521,22.533276 L197.72581,18.380165 L196.13441,12.830318 L190.53241,11.433582 L186.5218,15.586692 L188.11319,21.136538 z" fill="#e0a0a0" stroke="black" stroke-width="0.3"/>
<path d="M203.32785,19.776901 L207.33846,15.623791 L205.74706,10.073944 L200.14505,8.677208 L196.13445,12.8303175 L197.72583,18.380163 z" fill="#e0a0a0" stroke="black" stroke-width="0.3"/>
<path d="M212.94046,17.020527 L216.95107,12.867416 L215.35966,7.3175693 L209.75766,5.9208336 L205.74706,10.073943 L207.33844,15.623789 z" fill="#a0e0a0" stroke="black" stroke-width="0.3"/>
<path d="M222.55307,14.264156 L226.56367,10.111046 L224.97227,4.5611987 L219.37027,3.164463 L215.35966,7.3175726 L216.95105,12.867418 z" fill="#a0e0a0" stroke="black" stroke-width="0.3"/>
<path d="M232.16568,11.507782 L236.17628,7.3546715 L234.58488,1.8048244 L228.98288,0.40808868 L224.97227,4.561198 L226.56366,10.111044 z" fill="#a0e0a0" stroke="black" stroke-width="0.3"/>
<path d="M241.77832,8.751408 L245.78893,4.598297 L244.19753,-0.95155 L238.59552,-2.3482857 L234.58492,1.804824 L236.1763,7.35467 z" fill="#a0e0a0" stroke="black" stroke-width="0.3"/>
<path d="M251.39093,5.9950376 L255.40154,1.8419266 L253.81013,-3.7079206 L248.20813,-5.104656 L244.19753,-0.95154655 L245.78891,4.5982995 z" fill="#e0a0e0" stroke="black" stroke-width="0.3"/>
<path d="M261.00354,3.2386594 L265.01416,-0.9144516 L263.42276,-6.4642987 L257.82074,-7.8610344 L253.81013,-3.7079248 L255.40152,1.8419213 z" fill="#e0a0e0" stroke="black" stroke-width="0.3"/>
<path d="M37.494125,76.33822 L41.504738,72.185104 L39.913345,66.635254 L34.31134,65.238525 L30.300728,69.39163 L31.89212,74.941475 z" fill="#e0d4a3" stroke="black" stroke-width="0.3"/>
<path d="M47.106743,73.58184 L51.117355,69.42873 L49.525963,63.87888 L43.923958,62.482143 L39.913345,66.635254 L41.504738,72.1851 z" fill="#e0d4a3" stroke="black" stroke-width="0.3"/>
<path d="M56.719357,70.82547 L60.72997,66.672356 L59.138577,61.12251 L53.53657,59.725773 L49.52596,63.878883 L51.11735,69.42873 z" fill="#e0baa1" stroke="black" stroke-width="0.3"/>
<path d="M66.33198,68.06909 L70.34259,63.91598 L68.7512,58.366135 L63.149193,56.9694 L59.13858,61.12251 L60.729973,66.672356 z" fill="#e0baa1" stroke="black" stroke-width="0.3"/>
<path d="M75.94459,65.31272 L79.9552,61.159607 L78.36381,55.60976 L72.7618,54.213024 L68.75119,58.366135 L70.34258,63.91598 z" fill="#c1bae0" stroke="black" stroke-width="0.3"/>
<path d="M85.55721,62.556347 L89.567825,58.403236 L87.97643,52.85339 L82.37443,51.456654 L78.363815,55.609764 L79.95521,61.15961 z" fill="#c1bae0" stroke="black" stroke-width="0.3"/>
<path d="M95.16982,59.79997 L99.180435,55.64686 L97.58904,50.09701 L91.98704,48.700275 L87.976425,52.853386 L89.56782,58.403233 z" fill="#c1bae0" stroke="black" stroke-width="0.3"/>
<path d="M104.78245,57.0436 L108.79306,52.890488 L107.20167,47.34064 L101.59966,45.943905 L97.58905,50.097015 L99.18044,55.646862 z" fill="#aae4e0" stroke="black" stroke-width="0.3"/>
<path d="M114.39506,54.28722 L118.40567,50.13411 L116.81428,44.584263 L111.21227,43.187527 L107.20166,47.340637 L108.79305,52.890484 z" fill="#aae4e0" stroke="black" stroke-width="0.3"/>
<path d="M124.00768,51.53085 L128.0183,47.37774 L126.4269,41.827892 L120.8249,40.431156 L116.814285,44.584267 L118.40568,50.134113 z" fill="#aae4e0" stroke="black" stroke-width="0.3"/>
<path d="M133.6203,48.774475 L137.6309,44.621365 L136.0395,39.071518 L130.4375,37.67478 L126.426895,41.827892 L128.01828,47.37774 z" fill="#e0a0e0" stroke="black" stroke-width="0.3"/>
<path d="M143.23293,46.0181 L147.24353,41.86499 L145.65213,36.315144 L140.05013,34.918407 L136.03952,39.071518 L137.6309,44.621365 z" fill="#e0a0e0" stroke="black" stroke-width="0.3"/>
<path d="M152.84554,43.261726 L156.85614,39.108616 L155.26474,33.55877 L149.66273,32.162033 L145.65213,36.315144 L147.24352,41.86499 z" fill="#e0a0e0" stroke="black" stroke-width="0.3"/>
<path d="M162.45816,40.505352 L166.46877,36.35224 L164.87737,30.802395 L159.27536,29.405659 L155.26476,33.55877 L156.85614,39.108616 z" fill="#cbcbe0" stroke="black" stroke-width="0.3"/>
<path d="M172.07077,37.748978 L176.08138,33.595867 L174.48997,28.04602 L168.88797,26.649284 L164.87737,30.802395 L166.46875,36.35224 z" fill="#a0a0e0" stroke="black" stroke-width="0.3"/>
<path d="M181.6834,34.992607 L185.694,30.839497 L184.1026,25.28965 L178.5006,23.892914 L174.48999,28.046024 L176.08138,33.59587 z" fill="#a0a0e0" stroke="black" stroke-width="0.3"/>
<path d="M191.296,32.236233 L195.30661,28.083122 L193.71521,22.533276 L188.1132,21.13654 L184.1026,25.28965 L185.69398,30.839495 z" fill="#e0a0a0" stroke="black" stroke-width="0.3"/>
<path d="M200.90863,29.479858 L204.91924,25.326748 L203.32784,19.776901 L197.72583,18.380165 L193.71523,22.533276 L195.30661,28.08312 z" fill="#e0a0a0" stroke="black" stroke-width="0.3"/>
<path d="M210.52124,26.723484 L214.53185,22.570374 L212.94044,17.020527 L207.33844,15.623791 L203.32784,19.776901 L204.91922,25.326746 z" fill="#e0a0a0" stroke="black" stroke-width="0.3"/>
<path d="M220.13385,23.96711 L224.14445,19.814 L222.55305,14.264153 L216.95105,12.867416 L212.94044,17.020527 L214.53183,22.570372 z" fill="#a0e0a0" stroke="black" stroke-width="0.3"/>
<path d="M229.74648,21.210735 L233.75708,17.057625 L232.16568,11.507778 L226.56367,10.111042 L222.55307,14.264152 L224.14445,19.813997 z" fill="#a0e0a0" stroke="black" stroke-width="0.3"/>
<path d="M239.35909,18.454361 L243.36969,14.30125 L241.77829,8.751404 L236.17628,7.3546677 L232.16568,11.507777 L233.75706,17.057623 z" fill="#a0e0a0" stroke="black" stroke-width="0.3"/>
<path d="M248.97171,15.697987 L252.98232,11.544876 L251.39091,5.995029 L245.78891,4.5982933 L241.7783,8.751403 L243.36969,14.301249 z" fill="#e0a0e0" stroke="black" stroke-width="0.3"/>
<path d="M258.58432,12.941616 L262.5949,8.788506 L261.00354,3.2386584 L255.40152,1.8419228 L251.39091,5.9950323 L252.9823,11.544878 z" fill="#e0a0e0" stroke="black" stroke-width="0.3"/>
<path d="M268.19693,10.185238 L272.20752,6.0321274 L270.61615,0.48228025 L265.01413,-0.9144554 L261.00354,3.2386541 L262.5949,8.7885 z" fill="#e0a0e0" stroke="black" stroke-width="0.3"/>
<path d="M277.80954,7.428868 L281.82013,3.2757568 L280.22876,-2.2740903 L274.62674,-3.670826 L270.61615,0.4822837 L272.20752,6.03213 z" fill="#e0d4a3" stroke="black" stroke-width="0.3"/>
<path d="M287.42215,4.6724896 L291.43274,0.51937866 L289.84137,-5.0304685 L284.23935,-6.427204 L280.22876,-2.2740946 L281.82013,3.2757516 z" fill="#e0d4a3" stroke="black" stroke-width="0.3"/>
<path d="M297.0348,1.9161191 L301.0454,-2.236992 L299.454,-7.786839 L293.852,-9.183575 L289.84137,-5.030465 L291.43277,0.51938105 z" fill="#e0d4a3" stroke="black" stroke-width="0.3"/>
<path d="M63.912758,77.77206 L67.92337,73.61894 L66.33198,68.06909 L60.729973,66.67236 L56.71936,70.82547 L58.310753,76.37531 z" fill="#e0baa1" stroke="black" stroke-width="0.3"/>
<path d="M73.525375,75.015686 L77.53599,70.86257 L75.944595,65.31272 L70.34259,63.91599 L66.33198,68.0691 L67.92337,73.61894 z" fill="#e0baa1" stroke="black" stroke-width="0.3"/>
<path d="M83.13799,72.25931 L87.148605,68.10619 L85.55721,62.556347 L79.95521,61.15961 L75.944595,65.31272 L77.53599,70.862564 z" fill="#c1bae0" stroke="black" stroke-width="0.3"/>
<path d="M92.7506,69.50294 L96.761215,65.34982 L95.16982,59.799976 L89.56782,58.40324 L85.557205,62.55635 L87.1486,68.10619 z" fill="#c1bae0" stroke="black" stroke-width="0.3"/>
<path d="M102.36322,66.74656 L106.37383,62.59345 L104.78244,57.043602 L99.180435,55.646866 L95.16982,59.799976 L96.761215,65.34982 z" fill="#aae4e0" stroke="black" stroke-width="0.3"/>
<path d="M111.97584,63.990185 L115.98645,59.837074 L114.39506,54.287228 L108.79305,52.89049 L104.78244,57.043602 L106.37383,62.59345 z" fill="#aae4e0" stroke="black" stroke-width="0.3"/>
<path d="M121.588455,61.23381 L125.59907,57.0807 L124.007675,51.530853 L118.40567,50.134117 L114.39506,54.287228 L115.98645,59.837074 z" fill="#aae4e0" stroke="black" stroke-width="0.3"/>
<path d="M131.20108,58.477436 L135.21169,54.324326 L133.62029,48.77448 L128.01828,47.377743 L124.007675,51.530853 L125.59907,57.0807 z" fill="#aae4e0" stroke="black" stroke-width="0.3"/>
<path d="M140.8137,55.721066 L144.82431,51.567955 L143.23291,46.01811 L137.6309,44.621372 L133.6203,48.774483 L135.21169,54.32433 z" fill="#e0a0e0" stroke="black" stroke-width="0.3"/>
<path d="M150.42632,52.96469 L154.43692,48.81158 L152.84552,43.261734 L147.24352,41.864998 L143.23291,46.01811 L144.8243,51.567955 z" fill="#e0a0e0" stroke="black" stroke-width="0.3"/>
<path d="M160.03893,50.208317 L164.04953,46.055206 L162.45813,40.50536 L156.85612,39.108624 L152.84552,43.261734 L154.4369,48.81158 z" fill="#a0a0e0" stroke="black" stroke-width="0.3"/>
<path d="M169.65155,47.451942 L173.66216,43.298832 L172.07076,37.748985 L166.46875,36.35225 L162.45815,40.50536 L164.04953,46.055206 z" fill="#a0a0e0" stroke="black" stroke-width="0.3"/>
<path d="M179.26416,44.695568 L183.27477,40.542458 L181.68336,34.99261 L176.08136,33.595875 L172.07076,37.748985 L173.66214,43.298832 z" fill="#a0a0e0" stroke="black" stroke-width="0.3"/>
<path d="M188.87679,41.939194 L192.88739,37.786083 L191.29599,32.236237 L185.69398,30.8395 L181.68338,34.99261 L183.27477,40.542458 z" fill="#a0a0e0" stroke="black" stroke-width="0.3"/>
<path d="M198.4894,39.18282 L202.5,35.02971 L200.9086,29.479862 L195.3066,28.083126 L191.29599,32.236237 L192.88737,37.786083 z" fill="#e0a0a0" stroke="black" stroke-width="0.3"/>
<path d="M208.10202,36.426445 L212.11263,32.273335 L210.52122,26.723488 L204.91922,25.326752 L200.90862,29.479862 L202.5,35.02971 z" fill="#e0a0a0" stroke="black" stroke-width="0.3"/>
<path d="M217.71463,33.67007 L221.72523,29.51696 L220.13383,23.967113 L214.53183,22.570377 L210.52122,26.723488 L212.11261,32.273335 z" fill="#a0e0a0" stroke="black" stroke-width="0.3"/>
<path d="M227.32726,30.9137 L231.33786,26.76059 L229.74646,21.210743 L224.14445,19.814007 L220.13385,23.967117 L221.72523,29.516962 z" fill="#a0e0a0" stroke="black" stroke-width="0.3"/>
<path d="M236.93987,28.157326 L240.95047,24.004215 L239.35907,18.454369 L233.75706,17.057632 L229.74646,21.210743 L231.33784,26.760588 z" fill="#a0e0a0" stroke="black" stroke-width="0.3"/>
<path d="M246.55249,25.400951 L250.5631,21.24784 L248.9717,15.697994 L243.36969,14.301258 L239.35909,18.454369 L240.95047,24.004213 z" fill="#a0e0a0" stroke="black" stroke-width="0.3"/>
<path d="M256.1651,22.64458 L260.17572,18.49147 L258.58432,12.941624 L252.9823,11.544888 L248.9717,15.697997 L250.56308,21.247843 z" fill="#e0a0e0" stroke="black" stroke-width="0.3"/>
<path d="M265.77774,19.888203 L269.78833,15.735092 L268.19696,10.1852455 L262.59494,8.788509 L258.58435,12.941619 L260.17572,18.491465 z" fill="#e0a0e0" stroke="black" stroke-width="0.3"/>
<path d="M275.39035,17.131832 L279.40094,12.978722 L277.80957,7.4288745 L272.20755,6.032139 L268.19696,10.185248 L269.78833,15.735094 z" fill="#e0d4a3" stroke="black" stroke-width="0.3"/>
<path d="M285.00296,14.375454 L289.01355,10.222343 L287.42218,4.6724963 L281.82016,3.2757607 L277.80957,7.42887 L279.40094,12.978716 z" fill="#e0d4a3" stroke="black" stroke-width="0.3"/>
<path d="M294.61557,11.619083 L298.62616,7.465973 L297.0348,1.9161258 L291.43277,0.5193901 L287.42218,4.6724997 L289.01355,10.222345 z" fill="#e0d4a3" stroke="black" stroke-width="0.3"/>
<path d="M304.2282,8.862705 L308.23883,4.7095947 L306.64743,-0.8402524 L301.0454,-2.236988 L297.0348,1.9161216 L298.6262,7.4659677 z" fill="#e0d4a3" stroke="black" stroke-width="0.3"/>
<path d="M99.94401,76.44952 L103.95462,72.2964 L102.36323,66.74655 L96.76122,65.34982 L92.75061,69.50293 L94.342,75.05277 z" fill="#c1bae0" stroke="black" stroke-width="0.3"/>
<path d="M109.556625,73.693146 L113.56724,69.54003 L111.975845,63.990185 L106.37384,62.59345 L102.36323,66.74656 L103.95462,72.2964 z" fill="#aae4e0" stroke="black" stroke-width="0.3"/>
<path d="M119.16924,70.93677 L123.179855,66.78365 L121.58846,61.233807 L115.98646,59.83707 L111.975845,63.99018 L113.56724,69.54002 z" fill="#aae4e0" stroke="black" stroke-width="0.3"/>
<path d="M128.78186,68.1804 L132.79248,64.02728 L131.20108,58.477436 L125.599075,57.0807 L121.58846,61.23381 L123.179855,66.78365 z" fill="#aae4e0" stroke="black" stroke-width="0.3"/>
<path d="M138.39449,65.42402 L142.40509,61.27091 L140.81369,55.72106 L135.21169,54.324326 L131.20108,58.477436 L132.79247,64.02728 z" fill="#e0a0e0" stroke="black" stroke-width="0.3"/>
<path d="M148.00711,62.667645 L152.01772,58.514534 L150.42632,52.964687 L144.82431,51.56795 L140.8137,55.72106 L142.40509,61.27091 z" fill="#e0a0e0" stroke="black" stroke-width="0.3"/>
<path d="M157.61972,59.91127 L161.63033,55.75816 L160.03893,50.208313 L154.43692,48.811577 L150.42632,52.964687 L152.0177,58.514534 z" fill="#e0a0e0" stroke="black" stroke-width="0.3"/>
<path d="M167.23233,57.154896 L171.24294,53.001785 L169.65154,47.45194 L164.04953,46.055202 L160.03893,50.208313 L161.63031,55.75816 z" fill="#e0e0a0" stroke="black" stroke-width="0.3"/>
<path d="M176.84494,54.39852 L180.85555,50.24541 L179.26414,44.695564 L173.66214,43.29883 L169.65154,47.45194 L171.24292,53.001785 z" fill="#a0a0e0" stroke="black" stroke-width="0.3"/>
<path d="M186.45758,51.64215 L190.46819,47.48904 L188.87679,41.939194 L183.27478,40.542458 L179.26418,44.695568 L180.85556,50.245415 z" fill="#a0a0e0" stroke="black" stroke-width="0.3"/>
<path d="M196.07019,48.885777 L200.0808,44.732666 L198.4894,39.18282 L192.88739,37.786083 L188.87679,41.939194 L190.46817,47.48904 z" fill="#e0a0a0" stroke="black" stroke-width="0.3"/>
<path d="M205.6828,46.129402 L209.6934,41.97629 L208.102,36.426445 L202.5,35.02971 L198.4894,39.18282 L200.08078,44.732666 z" fill="#e0a0a0" stroke="black" stroke-width="0.3"/>
<path d="M215.29541,43.373028 L219.30602,39.219917 L217.71461,33.67007 L212.11261,32.273335 L208.102,36.426445 L209.69339,41.97629 z" fill="#e0a0a0" stroke="black" stroke-width="0.3"/>
<path d="M224.90802,40.616653 L228.91862,36.463543 L227.32722,30.913696 L221.72522,29.51696 L217.71461,33.67007 L219.306,39.219917 z" fill="#a0e0a0" stroke="black" stroke-width="0.3"/>
<path d="M234.52066,37.86028 L238.53127,33.70717 L236.93987,28.157322 L231.33786,26.760586 L227.32726,30.913696 L228.91864,36.463543 z" fill="#a0e0a0" stroke="black" stroke-width="0.3"/>
<path d="M244.13327,35.103905 L248.14388,30.950794 L246.55247,25.400948 L240.95047,24.004211 L236.93987,28.157322 L238.53125,33.70717 z" fill="#a0e0a0" stroke="black" stroke-width="0.3"/>
<path d="M253.74588,32.34753 L257.75647,28.19442 L256.1651,22.644573 L250.56308,21.247837 L246.55247,25.400948 L248.14386,30.950792 z" fill="#e0a0e0" stroke="black" stroke-width="0.3"/>
<path d="M263.3585,29.59116 L267.36908,25.43805 L265.7777,19.888203 L260.1757,18.491467 L256.1651,22.644577 L257.75647,28.194422 z" fill="#e0a0e0" stroke="black" stroke-width="0.3"/>
<path d="M272.97113,26.834782 L276.98175,22.681671 L275.39035,17.131824 L269.78833,15.735088 L265.7777,19.888199 L267.3691,25.438044 z" fill="#e0a0e0" stroke="black" stroke-width="0.3"/>
<path d="M282.58374,24.078411 L286.59436,19.9253 L285.00296,14.375454 L279.40094,12.978718 L275.39032,17.131828 L276.98172,22.681673 z" fill="#e0d4a3" stroke="black" stroke-width="0.3"/>
<path d="M292.19635,21.322033 L296.20697,17.168922 L294.61557,11.619076 L289.01355,10.22234 L285.00293,14.375449 L286.59433,19.925295 z" fill="#e0d4a3" stroke="black" stroke-width="0.3"/>
<path d="M301.809,18.565662 L305.81958,14.412552 L304.2282,8.862705 L298.6262,7.465969 L294.6156,11.619079 L296.20697,17.168924 z" fill="#e0d4a3" stroke="black" stroke-width="0.3"/>
<path d="M311.4216,15.809292 L315.4322,11.656181 L313.84082,6.106334 L308.2388,4.7095985 L304.2282,8.862708 L305.81958,14.412554 z" fill="#e0baa1" stroke="black" stroke-width="0.3"/>
<path d="M126.36264,77.88336 L130.37326,73.73025 L128.78186,68.1804 L123.179855,66.78366 L119.16924,70.936775 L120.760635,76.48662 z" fill="#aae4e0" stroke="black" stroke-width="0.3"/>
<path d="M135.97527,75.12698 L139.98587,70.97387 L138.39447,65.42402 L132.79247,64.02728 L128.78186,68.1804 L130.37325,73.73024 z" fill="#aae4e0" stroke="black" stroke-width="0.3"/>
<path d="M145.58788,72.37061 L149.59848,68.2175 L148.00708,62.667652 L142.40508,61.270916 L138.39447,65.42403 L139.98586,70.97387 z" fill="#e0a0e0" stroke="black" stroke-width="0.3"/>
<path d="M155.2005,69.61424 L159.2111,65.46113 L157.6197,59.91128 L152.0177,58.514545 L148.0071,62.667656 L149.59848,68.2175 z" fill="#e0a0e0" stroke="black" stroke-width="0.3"/>
<path d="M164.81311,66.857864 L168.82372,62.70475 L167.23232,57.154903 L161.63031,55.758167 L157.6197,59.911278 L159.21109,65.46112 z" fill="#a0a0e0" stroke="black" stroke-width="0.3"/>
<path d="M174.42574,64.10149 L178.43634,59.948376 L176.84494,54.39853 L171.24294,53.001793 L167.23233,57.154903 L168.82372,62.70475 z" fill="#a0a0e0" stroke="black" stroke-width="0.3"/>
<path d="M184.03835,61.34511 L188.04895,57.192 L186.45755,51.642155 L180.85555,50.24542 L176.84494,54.39853 L178.43633,59.948376 z" fill="#a0a0e0" stroke="black" stroke-width="0.3"/>
<path d="M193.65097,58.588737 L197.66158,54.435627 L196.07018,48.88578 L190.46817,47.489044 L186.45757,51.642155 L188.04895,57.192 z" fill="#a0a0e0" stroke="black" stroke-width="0.3"/>
<path d="M203.26358,55.832363 L207.27419,51.679253 L205.68279,46.129406 L200.08078,44.73267 L196.07018,48.88578 L197.66156,54.435627 z" fill="#e0a0a0" stroke="black" stroke-width="0.3"/>
<path d="M212.8762,53.07599 L216.88681,48.92288 L215.29541,43.37303 L209.6934,41.976295 L205.6828,46.129406 L207.27419,51.679253 z" fill="#e0a0a0" stroke="black" stroke-width="0.3"/>
<path d="M222.48882,50.319614 L226.49942,46.166504 L224.90802,40.616657 L219.30602,39.21992 L215.29541,43.37303 L216.8868,48.92288 z" fill="#a0e0a0" stroke="black" stroke-width="0.3"/>
<path d="M232.10144,47.563244 L236.11205,43.410133 L234.52065,37.860287 L228.91864,36.46355 L224.90804,40.61666 L226.49942,46.166508 z" fill="#a0e0a0" stroke="black" stroke-width="0.3"/>
<path d="M241.71405,44.80687 L245.72466,40.65376 L244.13326,35.103912 L238.53125,33.707176 L234.52065,37.860287 L236.11203,43.410133 z" fill="#a0e0a0" stroke="black" stroke-width="0.3"/>
<path d="M251.32668,42.050495 L255.33728,37.897385 L253.74588,32.347538 L248.14388,30.950802 L244.13327,35.103912 L245.72466,40.65376 z" fill="#a0e0a0" stroke="black" stroke-width="0.3"/>
<path d="M260.93927,39.294125 L264.9499,35.141014 L263.3585,29.591167 L257.75647,28.194431 L253.74586,32.34754 L255.33725,37.89739 z" fill="#e0a0e0" stroke="black" stroke-width="0.3"/>
<path d="M270.5519,36.537746 L274.5625,32.384636 L272.97113,26.83479 L267.3691,25.438053 L263.35852,29.591164 L264.9499,35.14101 z" fill="#e0a0e0" stroke="black" stroke-width="0.3"/>
<path d="M280.16452,33.781376 L284.1751,29.628265 L282.58374,24.078419 L276.98172,22.681683 L272.97113,26.834793 L274.5625,32.38464 z" fill="#e0d4a3" stroke="black" stroke-width="0.3"/>
<path d="M289.77713,31.024998 L293.78772,26.871887 L292.19635,21.32204 L286.59433,19.925304 L282.58374,24.078415 L284.1751,29.62826 z" fill="#e0d4a3" stroke="black" stroke-width="0.3"/>
<path d="M299.38974,28.268627 L303.40033,24.115517 L301.80896,18.56567 L296.20694,17.168934 L292.19635,21.322044 L293.78772,26.87189 z" fill="#e0d4a3" stroke="black" stroke-width="0.3"/>
<path d="M309.00238,25.512249 L313.013,21.359138 L311.4216,15.809292 L305.81958,14.412556 L301.80896,18.565666 L303.40036,24.11551 z" fill="#e0d4a3" stroke="black" stroke-width="0.3"/>
<path d="M162.39389,76.56081 L166.4045,72.40769 L164.8131,66.85784 L159.21109,65.461105 L155.20049,69.61422 L156.79187,75.16406 z" fill="#e0a0e0" stroke="black" stroke-width="0.3"/>
<path d="M172.00652,73.804436 L176.01712,69.65132 L174.42572,64.10147 L168.82372,62.70474 L164.81311,66.85785 L166.4045,72.40769 z" fill="#e0e0a0" stroke="black" stroke-width="0.3"/>
<path d="M181.61913,71.048065 L185.62973,66.89495 L184.03833,61.345104 L178.43633,59.948368 L174.42572,64.10148 L176.0171,69.65132 z" fill="#a0a0e0" stroke="black" stroke-width="0.3"/>
<path d="M191.23175,68.29169 L195.24236,64.13858 L193.65096,58.58873 L188.04895,57.191994 L184.03835,61.345104 L185.62973,66.89495 z" fill="#a0a0e0" stroke="black" stroke-width="0.3"/>
<path d="M200.84436,65.53532 L204.85497,61.382202 L203.26357,55.832355 L197.66156,54.43562 L193.65096,58.58873 L195.24234,64.13857 z" fill="#e0a0a0" stroke="black" stroke-width="0.3"/>
<path d="M210.45699,62.77894 L214.46759,58.625828 L212.87619,53.07598 L207.27419,51.679245 L203.26358,55.832355 L204.85497,61.382202 z" fill="#e0a0a0" stroke="black" stroke-width="0.3"/>
<path d="M220.0696,60.022564 L224.0802,55.869453 L222.4888,50.319607 L216.8868,48.92287 L212.87619,53.07598 L214.46758,58.625828 z" fill="#e0a0a0" stroke="black" stroke-width="0.3"/>
<path d="M229.6822,57.26619 L233.69281,53.11308 L232.10141,47.563232 L226.4994,46.166496 L222.4888,50.319607 L224.08018,55.869453 z" fill="#a0e0a0" stroke="black" stroke-width="0.3"/>
<path d="M239.29483,54.509815 L243.30544,50.356705 L241.71404,44.806858 L236.11203,43.410122 L232.10143,47.563232 L233.69281,53.11308 z" fill="#a0e0a0" stroke="black" stroke-width="0.3"/>
<path d="M248.90744,51.75344 L252.91805,47.60033 L251.32664,42.050484 L245.72464,40.653748 L241.71404,44.806858 L243.30542,50.356705 z" fill="#a0e0a0" stroke="black" stroke-width="0.3"/>
<path d="M258.52005,48.997066 L262.53064,44.843956 L260.93927,39.29411 L255.33725,37.897373 L251.32664,42.050484 L252.91803,47.60033 z" fill="#e0a0e0" stroke="black" stroke-width="0.3"/>
<path d="M268.13266,46.240696 L272.14325,42.087585 L270.55188,36.53774 L264.94986,35.141003 L260.93927,39.294113 L262.53064,44.84396 z" fill="#e0a0e0" stroke="black" stroke-width="0.3"/>
<path d="M277.7453,43.484318 L281.75592,39.331207 L280.16452,33.78136 L274.5625,32.384624 L270.55188,36.537735 L272.14328,42.08758 z" fill="#e0a0e0" stroke="black" stroke-width="0.3"/>
<path d="M287.3579,40.727947 L291.36853,36.574837 L289.77713,31.02499 L284.1751,29.628254 L280.1645,33.781364 L281.7559,39.33121 z" fill="#e0d4a3" stroke="black" stroke-width="0.3"/>
<path d="M296.97052,37.97157 L300.98114,33.81846 L299.38974,28.268612 L293.78772,26.871876 L289.7771,31.024986 L291.3685,36.574833 z" fill="#e0d4a3" stroke="black" stroke-width="0.3"/>
<path d="M306.58316,35.2152 L310.59375,31.062088 L309.00238,25.512241 L303.40036,24.115505 L299.38977,28.268616 L300.98114,33.818462 z" fill="#e0d4a3" stroke="black" stroke-width="0.3"/>
<path d="M316.19577,32.458828 L320.20636,28.305717 L318.615,22.75587 L313.01297,21.359135 L309.00238,25.512245 L310.59375,31.06209 z" fill="#e0baa1" stroke="black" stroke-width="0.3"/>
<path d="M188.81253,77.99465 L192.82314,73.84154 L191.23174,68.29169 L185.62973,66.89496 L181.61913,71.048065 L183.21051,76.59791 z" fill="#a0a0e0" stroke="black" stroke-width="0.3"/>
<path d="M198.42514,75.23828 L202.43575,71.08517 L200.84435,65.53532 L195.24234,64.13858 L191.23174,68.291695 L192.82312,73.84154 z" fill="#a0a0e0" stroke="black" stroke-width="0.3"/>
<path d="M208.03775,72.4819 L212.04836,68.32879 L210.45695,62.778942 L204.85495,61.382206 L200.84435,65.53532 L202.43573,71.08516 z" fill="#e0a0a0" stroke="black" stroke-width="0.3"/>
<path d="M217.65039,69.725525 L221.661,65.57241 L220.0696,60.022564 L214.46759,58.625828 L210.45699,62.77894 L212.04837,68.32878 z" fill="#e0a0a0" stroke="black" stroke-width="0.3"/>
<path d="M227.263,66.969154 L231.2736,62.81604 L229.6822,57.266193 L224.0802,55.869457 L220.0696,60.022568 L221.66098,65.57241 z" fill="#a0e0a0" stroke="black" stroke-width="0.3"/>
<path d="M236.87561,64.21278 L240.88622,60.05967 L239.29482,54.509823 L233.69281,53.113087 L229.6822,57.266197 L231.27359,62.816044 z" fill="#a0e0a0" stroke="black" stroke-width="0.3"/>
<path d="M246.48822,61.456406 L250.49883,57.303295 L248.90742,51.75345 L243.30542,50.356712 L239.29482,54.509823 L240.8862,60.05967 z" fill="#a0e0a0" stroke="black" stroke-width="0.3"/>
<path d="M256.10086,58.70003 L260.11145,54.54692 L258.52008,48.997074 L252.91806,47.600338 L248.90746,51.75345 L250.49884,57.303295 z" fill="#a0e0a0" stroke="black" stroke-width="0.3"/>
<path d="M265.71347,55.94366 L269.72406,51.79055 L268.1327,46.240704 L262.53067,44.843967 L258.52008,48.997078 L260.11145,54.546925 z" fill="#e0a0e0" stroke="black" stroke-width="0.3"/>
<path d="M275.32608,53.187283 L279.33667,49.034172 L277.7453,43.484325 L272.14328,42.08759 L268.1327,46.2407 L269.72406,51.790546 z" fill="#e0a0e0" stroke="black" stroke-width="0.3"/>
<path d="M284.9387,50.430912 L288.94928,46.2778 L287.3579,40.727955 L281.7559,39.33122 L277.7453,43.48433 L279.33667,49.034176 z" fill="#e0d4a3" stroke="black" stroke-width="0.3"/>
<path d="M294.5513,47.674534 L298.5619,43.521423 L296.97052,37.971577 L291.3685,36.57484 L287.3579,40.72795 L288.94928,46.277798 z" fill="#e0d4a3" stroke="black" stroke-width="0.3"/>
<path d="M304.1639,44.918163 L308.1745,40.765053 L306.58313,35.215206 L300.9811,33.81847 L296.97052,37.97158 L298.5619,43.521427 z" fill="#e0d4a3" stroke="black" stroke-width="0.3"/>
<path d="M313.77655,42.161785 L317.78717,38.008675 L316.19577,32.458828 L310.59375,31.062092 L306.58313,35.215202 L308.17453,40.76505 z" fill="#e0d4a3" stroke="black" stroke-width="0.3"/>
<path d="M224.84378,76.67211 L228.85439,72.519 L227.26299,66.96915 L221.66098,65.57242 L217.65038,69.725525 L219.24176,75.27537 z" fill="#e0a0a0" stroke="black" stroke-width="0.3"/>
<path d="M234.45639,73.91574 L238.467,69.76263 L236.8756,64.212776 L231.27359,62.816044 L227.26299,66.969154 L228.85437,72.519 z" fill="#a0e0a0" stroke="black" stroke-width="0.3"/>
<path d="M244.06902,71.15936 L248.07962,67.00625 L246.48822,61.4564 L240.88622,60.059666 L236.87561,64.212776 L238.467,69.76262 z" fill="#a0e0a0" stroke="black" stroke-width="0.3"/>
<path d="M253.68163,68.402985 L257.69223,64.24988 L256.10083,58.700027 L250.49883,57.30329 L246.48822,61.4564 L248.0796,67.00625 z" fill="#a0e0a0" stroke="black" stroke-width="0.3"/>
<path d="M263.29425,65.646614 L267.30487,61.4935 L265.71347,55.943653 L260.11145,54.546917 L256.10083,58.700027 L257.69223,64.24987 z" fill="#e0a0e0" stroke="black" stroke-width="0.3"/>
<path d="M272.90686,62.89024 L276.91748,58.73713 L275.32608,53.187283 L269.72406,51.790546 L265.71344,55.943657 L267.30484,61.493504 z" fill="#e0a0e0" stroke="black" stroke-width="0.3"/>
<path d="M282.51947,60.13386 L286.5301,55.98075 L284.9387,50.430904 L279.33667,49.03417 L275.32605,53.18728 L276.91745,58.737125 z" fill="#e0a0e0" stroke="black" stroke-width="0.3"/>
<path d="M292.13208,57.37749 L296.1427,53.22438 L294.5513,47.674534 L288.94928,46.277798 L284.93866,50.43091 L286.53006,55.980755 z" fill="#e0d4a3" stroke="black" stroke-width="0.3"/>
<path d="M301.7447,54.621113 L305.7553,50.468002 L304.1639,44.918156 L298.5619,43.52142 L294.55127,47.67453 L296.14267,53.224377 z" fill="#e0d4a3" stroke="black" stroke-width="0.3"/>
<path d="M311.35733,51.864742 L315.36792,47.71163 L313.77655,42.161785 L308.17453,40.76505 L304.16394,44.91816 L305.7553,50.468006 z" fill="#e0d4a3" stroke="black" stroke-width="0.3"/>
<path d="M320.96994,49.10837 L324.98053,44.95526 L323.38916,39.405415 L317.78714,38.00868 L313.77655,42.16179 L315.36792,47.711636 z" fill="#e0baa1" stroke="black" stroke-width="0.3"/>
<path d="M251.2624,78.10594 L255.27301,73.95283 L253.68161,68.40298 L248.0796,67.00624 L244.069,71.159355 L245.66039,76.7092 z" fill="#a0e0a0" stroke="black" stroke-width="0.3"/>
<path d="M260.87503,75.34957 L264.88562,71.19646 L263.29425,65.64661 L257.69223,64.24988 L253.68163,68.402985 L255.27301,73.95283 z" fill="#a0e0a0" stroke="black" stroke-width="0.3"/>
<path d="M270.48764,72.5932 L274.49823,68.44009 L272.90686,62.89024 L267.30484,61.493504 L263.29425,65.646614 L264.88562,71.19646 z" fill="#e0a0e0" stroke="black" stroke-width="0.3"/>
<path d="M280.10025,69.83682 L284.11084,65.68371 L282.51947,60.13386 L276.91745,58.737125 L272.90686,62.890236 L274.49823,68.44008 z" fill="#e0a0e0" stroke="black" stroke-width="0.3"/>
<path d="M289.71286,67.08045 L293.72345,62.927338 L292.13208,57.37749 L286.53006,55.980755 L282.51947,60.133865 L284.11084,65.68371 z" fill="#e0d4a3" stroke="black" stroke-width="0.3"/>
<path d="M299.32547,64.32407 L303.33606,60.17096 L301.7447,54.621113 L296.14267,53.224377 L292.13208,57.377487 L293.72345,62.927334 z" fill="#e0d4a3" stroke="black" stroke-width="0.3"/>
<path d="M308.93808,61.5677 L312.94867,57.41459 L311.3573,51.864742 L305.75528,50.468006 L301.7447,54.621117 L303.33606,60.170963 z" fill="#e0d4a3" stroke="black" stroke-width="0.3"/>
<path d="M318.55075,58.81132 L322.56134,54.65821 L320.96997,49.108364 L315.36795,47.711628 L311.35736,51.86474 L312.94873,57.414585 z" fill="#e0d4a3" stroke="black" stroke-width="0.3"/>
<path d="M287.29367,76.78342 L291.30426,72.6303 L289.7129,67.08045 L284.11087,65.683716 L280.10028,69.83683 L281.69165,75.38667 z" fill="#e0a0e0" stroke="black" stroke-width="0.3"/>
<path d="M296.90628,74.02705 L300.91687,69.87393 L299.3255,64.32408 L293.72348,62.92735 L289.7129,67.08046 L291.30426,72.6303 z" fill="#e0d4a3" stroke="black" stroke-width="0.3"/>
<path d="M306.5189,71.27067 L310.52948,67.11755 L308.9381,61.567707 L303.3361,60.17097 L299.3255,64.32408 L300.91687,69.873924 z" fill="#e0d4a3" stroke="black" stroke-width="0.3"/>
<path d="M316.13153,68.5143 L320.14215,64.36118 L318.55075,58.811337 L312.94873,57.4146 L308.9381,61.56771 L310.5295,67.11755 z" fill="#e0d4a3" stroke="black" stroke-width="0.3"/>
<path d="M325.74414,65.75793 L329.75476,61.604813 L328.16336,56.054966 L322.56134,54.65823 L318.55072,58.81134 L320.14212,64.36118 z" fill="#e0baa1" stroke="black" stroke-width="0.3"/>
<path d="M313.71228,78.21724 L317.7229,74.064125 L316.1315,68.514275 L310.52948,67.11754 L306.51886,71.27065 L308.11026,76.820496 z" fill="#e0d4a3" stroke="black" stroke-width="0.3"/>
<path d="M323.32492,75.46086 L327.3355,71.30775 L325.74414,65.7579 L320.14212,64.36116 L316.13153,68.514275 L317.7229,74.06412 z" fill="#e0d4a3" stroke="black" stroke-width="0.3"/>
<text class="black" dominant-baseline="middle" text-anchor="middle" x="0" y="0">
^^C6
</text>
<text class="black" dominant-baseline="middle" text-anchor="middle" x="9.612617" y="-2.756374">
^^D6
</text>
<text class="black" dominant-baseline="middle" text-anchor="middle" x="7.193398" y="6.946583">
^^G5
</text>
<text class="black" dominant-baseline="middle" text-anchor="middle" x="16.806015" y="4.1902094">
^^A5
</text>
<text class="black" dominant-baseline="middle" text-anchor="middle" x="26.418633" y="1.433835">
^^B5
</text>
<text class="black" dominant-baseline="middle" text-anchor="middle" x="36.031246" y="-1.3225384">
vvD6
</text>
<text class="black" dominant-baseline="middle" text-anchor="middle" x="45.643864" y="-4.0789127">
vvE6
</text>
<text class="black" dominant-baseline="middle" text-anchor="middle" x="4.7741795" y="16.64954">
^^C5
</text>
<text class="black" dominant-baseline="middle" text-anchor="middle" x="14.386796" y="13.893166">
^^D5
</text>
<text class="black" dominant-baseline="middle" text-anchor="middle" x="23.999413" y="11.136792">
^^E5
</text>
<text class="black" dominant-baseline="middle" text-anchor="middle" x="33.61203" y="8.380419">
vvG5
</text>
<text class="black" dominant-baseline="middle" text-anchor="middle" x="43.224648" y="5.6240444">
vvA5
</text>
<text class="black" dominant-baseline="middle" text-anchor="middle" x="52.837265" y="2.86767">
vvB5
</text>
<text class="black" dominant-baseline="middle" text-anchor="middle" x="62.449883" y="0.11129761">
vvC6
</text>
<text class="black" dominant-baseline="middle" text-anchor="middle" x="72.06249" y="-2.6450768">
vvD6
</text>
<text class="black" dominant-baseline="middle" text-anchor="middle" x="11.967578" y="23.596125">
^^G4
</text>
<text class="black" dominant-baseline="middle" text-anchor="middle" x="21.580194" y="20.839752">
^^A4
</text>
<text class="black" dominant-baseline="middle" text-anchor="middle" x="31.192812" y="18.083378">
^^B4
</text>
<text class="black" dominant-baseline="middle" text-anchor="middle" x="40.805428" y="15.3270035">
vvD5
</text>
<text class="black" dominant-baseline="middle" text-anchor="middle" x="50.418045" y="12.570629">
vvE5
</text>
<text class="black" dominant-baseline="middle" text-anchor="middle" x="60.030663" y="9.814256">
vvF5
</text>
<text class="black" dominant-baseline="middle" text-anchor="middle" x="69.64328" y="7.0578823">
vvG5
</text>
<text class="black" dominant-baseline="middle" text-anchor="middle" x="79.2559" y="4.301508">
vvA5
</text>
<text class="black" dominant-baseline="middle" text-anchor="middle" x="88.868515" y="1.5451336">
vC5
</text>
<text class="black" dominant-baseline="middle" text-anchor="middle" x="98.48113" y="-1.2112408">
vD6
</text>
<text class="black" dominant-baseline="middle" text-anchor="middle" x="108.09375" y="-3.9676132">
vE6
</text>
<text class="black" dominant-baseline="middle" text-anchor="middle" x="9.548359" y="33.29908">
^^C4
</text>
<text class="black" dominant-baseline="middle" text-anchor="middle" x="19.160976" y="30.542706">
^^D4
</text>
<text class="black" dominant-baseline="middle" text-anchor="middle" x="28.773592" y="27.786331">
^^E4
</text>
<text class="black" dominant-baseline="middle" text-anchor="middle" x="38.386208" y="25.029959">
vvG4
</text>
<text class="black" dominant-baseline="middle" text-anchor="middle" x="47.998825" y="22.273584">
vvA4
</text>
<text class="black" dominant-baseline="middle" text-anchor="middle" x="57.611443" y="19.51721">
vvB4
</text>
<text class="black" dominant-baseline="middle" text-anchor="middle" x="67.22406" y="16.760838">
vvC5
</text>
<text class="black" dominant-baseline="middle" text-anchor="middle" x="76.83667" y="14.004463">
vvD5
</text>
<text class="black" dominant-baseline="middle" text-anchor="middle" x="86.449295" y="11.248089">
vF5
</text>
<text class="black" dominant-baseline="middle" text-anchor="middle" x="96.061905" y="8.4917145">
vG5
</text>
<text class="black" dominant-baseline="middle" text-anchor="middle" x="105.67453" y="5.73534">
vA5
</text>
<text class="black" dominant-baseline="middle" text-anchor="middle" x="115.28714" y="2.9789677">
vB5
</text>
<text class="black" dominant-baseline="middle" text-anchor="middle" x="124.899765" y="0.22259521">
D6
</text>
<text class="black" dominant-baseline="middle" text-anchor="middle" x="134.51237" y="-2.5337791">
E6
</text>
<text class="black" dominant-baseline="middle" text-anchor="middle" x="16.741756" y="40.245667">
^^G3
</text>
<text class="black" dominant-baseline="middle" text-anchor="middle" x="26.354374" y="37.489292">
^^A3
</text>
<text class="black" dominant-baseline="middle" text-anchor="middle" x="35.96699" y="34.732918">
^^B3
</text>
<text class="black" dominant-baseline="middle" text-anchor="middle" x="45.579605" y="31.976543">
vvD4
</text>
<text class="black" dominant-baseline="middle" text-anchor="middle" x="55.192223" y="29.22017">
vvE4
</text>
<text class="black" dominant-baseline="middle" text-anchor="middle" x="64.80484" y="26.463795">
vvF4
</text>
<text class="black" dominant-baseline="middle" text-anchor="middle" x="74.41746" y="23.707422">
vvG4
</text>
<text class="black" dominant-baseline="middle" text-anchor="middle" x="84.030075" y="20.951048">
vvA4
</text>
<text class="black" dominant-baseline="middle" text-anchor="middle" x="93.64269" y="18.194674">
vC4
</text>
<text class="black" dominant-baseline="middle" text-anchor="middle" x="103.25531" y="15.438299">
vD5
</text>
<text class="black" dominant-baseline="middle" text-anchor="middle" x="112.86793" y="12.681927">
vE5
</text>
<text class="black" dominant-baseline="middle" text-anchor="middle" x="122.480545" y="9.925552">
G5
</text>
<text class="black" dominant-baseline="middle" text-anchor="middle" x="132.09317" y="7.169178">
A5
</text>
<text class="black" dominant-baseline="middle" text-anchor="middle" x="141.70578" y="4.4128036">
B5
</text>
<text class="black" dominant-baseline="middle" text-anchor="middle" x="151.3184" y="1.6564293">
C6
</text>
<text class="black" dominant-baseline="middle" text-anchor="middle" x="160.93102" y="-1.0999451">
D6
</text>
<text class="black" dominant-baseline="middle" text-anchor="middle" x="170.54364" y="-3.8563156">
E6
</text>
<text class="black" dominant-baseline="middle" text-anchor="middle" x="14.322539" y="49.948624">
^^C3
</text>
<text class="black" dominant-baseline="middle" text-anchor="middle" x="23.935156" y="47.19225">
^^D3
</text>
<text class="black" dominant-baseline="middle" text-anchor="middle" x="33.54777" y="44.435875">
^^E3
</text>
<text class="black" dominant-baseline="middle" text-anchor="middle" x="43.16039" y="41.679504">
vvG3
</text>
<text class="black" dominant-baseline="middle" text-anchor="middle" x="52.773006" y="38.923126">
vvA3
</text>
<text class="black" dominant-baseline="middle" text-anchor="middle" x="62.385624" y="36.166756">
vvB3
</text>
<text class="black" dominant-baseline="middle" text-anchor="middle" x="71.99824" y="33.41038">
vvC4
</text>
<text class="black" dominant-baseline="middle" text-anchor="middle" x="81.610855" y="30.654007">
vvD4
</text>
<text class="black" dominant-baseline="middle" text-anchor="middle" x="91.22347" y="27.897633">
vF4
</text>
<text class="black" dominant-baseline="middle" text-anchor="middle" x="100.83609" y="25.141258">
vG4
</text>
<text class="black" dominant-baseline="middle" text-anchor="middle" x="110.44871" y="22.384884">
vA4
</text>
<text class="black" dominant-baseline="middle" text-anchor="middle" x="120.061325" y="19.628511">
vB4
</text>
<text class="black" dominant-baseline="middle" text-anchor="middle" x="129.67393" y="16.872139">
D5
</text>
<text class="black" dominant-baseline="middle" text-anchor="middle" x="139.28656" y="14.115765">
E5
</text>
<text class="black" dominant-baseline="middle" text-anchor="middle" x="148.89917" y="11.35939">
F5
</text>
<text class="black" dominant-baseline="middle" text-anchor="middle" x="158.5118" y="8.603016">
G5
</text>
<text class="black" dominant-baseline="middle" text-anchor="middle" x="168.1244" y="5.8466415">
A5
</text>
<text class="black" dominant-baseline="middle" text-anchor="middle" x="177.73703" y="3.0902672">
B5
</text>
<text class="black" dominant-baseline="middle" text-anchor="middle" x="187.34964" y="0.33389282">
C6
</text>
<text class="black" dominant-baseline="middle" text-anchor="middle" x="196.96227" y="-2.4224815">
D6
</text>
<text class="black" dominant-baseline="middle" text-anchor="middle" x="21.515938" y="56.895206">
^^G2
</text>
<text class="black" dominant-baseline="middle" text-anchor="middle" x="31.128555" y="54.138832">
^^A2
</text>
<text class="black" dominant-baseline="middle" text-anchor="middle" x="40.741173" y="51.382458">
^^B2
</text>
<text class="black" dominant-baseline="middle" text-anchor="middle" x="50.353786" y="48.626083">
vvD3
</text>
<text class="black" dominant-baseline="middle" text-anchor="middle" x="59.966404" y="45.86971">
vvE3
</text>
<text class="black" dominant-baseline="middle" text-anchor="middle" x="69.579025" y="43.113335">
vvF3
</text>
<text class="black" dominant-baseline="middle" text-anchor="middle" x="79.191635" y="40.356964">
vvG3
</text>
<text class="black" dominant-baseline="middle" text-anchor="middle" x="88.80426" y="37.600586">
vvA3
</text>
<text class="black" dominant-baseline="middle" text-anchor="middle" x="98.41687" y="34.844215">
vC3
</text>
<text class="black" dominant-baseline="middle" text-anchor="middle" x="108.029495" y="32.087837">
vD4
</text>
<text class="black" dominant-baseline="middle" text-anchor="middle" x="117.642105" y="29.331467">
vE4
</text>
<text class="black" dominant-baseline="middle" text-anchor="middle" x="127.25473" y="26.575092">
G4
</text>
<text class="black" dominant-baseline="middle" text-anchor="middle" x="136.86734" y="23.818718">
A4
</text>
<text class="black" dominant-baseline="middle" text-anchor="middle" x="146.47995" y="21.062344">
B4
</text>
<text class="black" dominant-baseline="middle" text-anchor="middle" x="156.09258" y="18.30597">
C5
</text>
<text class="black" dominant-baseline="middle" text-anchor="middle" x="165.70518" y="15.549595">
D5
</text>
<text class="black" dominant-baseline="middle" text-anchor="middle" x="175.31781" y="12.793224">
E5
</text>
<text class="black" dominant-baseline="middle" text-anchor="middle" x="184.93042" y="10.03685">
F5
</text>
<text class="black" dominant-baseline="middle" text-anchor="middle" x="194.54305" y="7.2804756">
G5
</text>
<text class="black" dominant-baseline="middle" text-anchor="middle" x="204.15565" y="4.5241013">
A5
</text>
<text class="black" dominant-baseline="middle" text-anchor="middle" x="213.76826" y="1.7677269">
^C6
</text>
<text class="black" dominant-baseline="middle" text-anchor="middle" x="223.38089" y="-0.98864746">
^D6
</text>
<text class="black" dominant-baseline="middle" text-anchor="middle" x="232.9935" y="-3.7450218">
^E6
</text>
<text class="black" dominant-baseline="middle" text-anchor="middle" x="19.096718" y="66.59816">
^^C2
</text>
<text class="black" dominant-baseline="middle" text-anchor="middle" x="28.709335" y="63.841785">
^^D2
</text>
<text class="black" dominant-baseline="middle" text-anchor="middle" x="38.321953" y="61.08541">
^^E2
</text>
<text class="black" dominant-baseline="middle" text-anchor="middle" x="47.93457" y="58.32904">
vvG2
</text>
<text class="black" dominant-baseline="middle" text-anchor="middle" x="57.547184" y="55.572662">
vvA2
</text>
<text class="black" dominant-baseline="middle" text-anchor="middle" x="67.159805" y="52.81629">
vvB2
</text>
<text class="black" dominant-baseline="middle" text-anchor="middle" x="76.772415" y="50.059917">
vvC3
</text>
<text class="black" dominant-baseline="middle" text-anchor="middle" x="86.38503" y="47.303543">
vvD3
</text>
<text class="black" dominant-baseline="middle" text-anchor="middle" x="95.99765" y="44.54717">
vF3
</text>
<text class="black" dominant-baseline="middle" text-anchor="middle" x="105.61027" y="41.790794">
vG3
</text>
<text class="black" dominant-baseline="middle" text-anchor="middle" x="115.222885" y="39.03442">
vA3
</text>
<text class="black" dominant-baseline="middle" text-anchor="middle" x="124.8355" y="36.278046">
vB3
</text>
<text class="black" dominant-baseline="middle" text-anchor="middle" x="134.44812" y="33.521675">
D4
</text>
<text class="black" dominant-baseline="middle" text-anchor="middle" x="144.06073" y="30.7653">
E4
</text>
<text class="black" dominant-baseline="middle" text-anchor="middle" x="153.67334" y="28.008926">
F4
</text>
<text class="black" dominant-baseline="middle" text-anchor="middle" x="163.28598" y="25.252552">
G4
</text>
<text class="black" dominant-baseline="middle" text-anchor="middle" x="172.89859" y="22.496178">
A4
</text>
<text class="black" dominant-baseline="middle" text-anchor="middle" x="182.5112" y="19.739803">
B4
</text>
<text class="black" dominant-baseline="middle" text-anchor="middle" x="192.12381" y="16.983429">
C5
</text>
<text class="black" dominant-baseline="middle" text-anchor="middle" x="201.73645" y="14.227055">
D5
</text>
<text class="black" dominant-baseline="middle" text-anchor="middle" x="211.34906" y="11.47068">
^F5
</text>
<text class="black" dominant-baseline="middle" text-anchor="middle" x="220.96167" y="8.71431">
^G5
</text>
<text class="black" dominant-baseline="middle" text-anchor="middle" x="230.57428" y="5.9579353">
^A5
</text>
<text class="black" dominant-baseline="middle" text-anchor="middle" x="240.18692" y="3.201561">
^B5
</text>
<text class="black" dominant-baseline="middle" text-anchor="middle" x="249.79953" y="0.44519043">
^^D6
</text>
<text class="black" dominant-baseline="middle" text-anchor="middle" x="259.41214" y="-2.3111877">
^^E6
</text>
<text class="black" dominant-baseline="middle" text-anchor="middle" x="35.902733" y="70.78837">
^^A1
</text>
<text class="black" dominant-baseline="middle" text-anchor="middle" x="45.51535" y="68.03199">
^^B1
</text>
<text class="black" dominant-baseline="middle" text-anchor="middle" x="55.127964" y="65.27562">
vvD2
</text>
<text class="black" dominant-baseline="middle" text-anchor="middle" x="64.740585" y="62.519245">
vvE2
</text>
<text class="black" dominant-baseline="middle" text-anchor="middle" x="74.353195" y="59.76287">
vvF2
</text>
<text class="black" dominant-baseline="middle" text-anchor="middle" x="83.96582" y="57.0065">
vvG2
</text>
<text class="black" dominant-baseline="middle" text-anchor="middle" x="93.57843" y="54.250122">
vvA2
</text>
<text class="black" dominant-baseline="middle" text-anchor="middle" x="103.191055" y="51.49375">
vC2
</text>
<text class="black" dominant-baseline="middle" text-anchor="middle" x="112.803665" y="48.737373">
vD3
</text>
<text class="black" dominant-baseline="middle" text-anchor="middle" x="122.41629" y="45.981003">
vE3
</text>
<text class="black" dominant-baseline="middle" text-anchor="middle" x="132.0289" y="43.22463">
G3
</text>
<text class="black" dominant-baseline="middle" text-anchor="middle" x="141.64153" y="40.468254">
A3
</text>
<text class="black" dominant-baseline="middle" text-anchor="middle" x="151.25414" y="37.71188">
B3
</text>
<text class="black" dominant-baseline="middle" text-anchor="middle" x="160.86676" y="34.955505">
C4
</text>
<text class="black" dominant-baseline="middle" text-anchor="middle" x="170.47937" y="32.19913">
D4
</text>
<text class="black" dominant-baseline="middle" text-anchor="middle" x="180.092" y="29.44276">
E4
</text>
<text class="black" dominant-baseline="middle" text-anchor="middle" x="189.7046" y="26.686386">
F4
</text>
<text class="black" dominant-baseline="middle" text-anchor="middle" x="199.31723" y="23.930012">
G4
</text>
<text class="black" dominant-baseline="middle" text-anchor="middle" x="208.92984" y="21.173637">
A4
</text>
<text class="black" dominant-baseline="middle" text-anchor="middle" x="218.54245" y="18.417263">
^C5
</text>
<text class="black" dominant-baseline="middle" text-anchor="middle" x="228.15508" y="15.660889">
^D5
</text>
<text class="black" dominant-baseline="middle" text-anchor="middle" x="237.76768" y="12.904514">
^E5
</text>
<text class="black" dominant-baseline="middle" text-anchor="middle" x="247.38031" y="10.14814">
^^G5
</text>
<text class="black" dominant-baseline="middle" text-anchor="middle" x="256.99292" y="7.3917694">
^^A5
</text>
<text class="black" dominant-baseline="middle" text-anchor="middle" x="266.60553" y="4.635391">
^^B5
</text>
<text class="black" dominant-baseline="middle" text-anchor="middle" x="276.21814" y="1.8790207">
^^C6
</text>
<text class="black" dominant-baseline="middle" text-anchor="middle" x="285.83075" y="-0.8773575">
^^D6
</text>
<text class="black" dominant-baseline="middle" text-anchor="middle" x="295.4434" y="-3.633728">
^^E6
</text>
<text class="black" dominant-baseline="middle" text-anchor="middle" x="62.321365" y="72.222206">
vvA1
</text>
<text class="black" dominant-baseline="middle" text-anchor="middle" x="71.93398" y="69.465836">
vvB1
</text>
<text class="black" dominant-baseline="middle" text-anchor="middle" x="81.5466" y="66.70946">
vvC2
</text>
<text class="black" dominant-baseline="middle" text-anchor="middle" x="91.15921" y="63.953087">
vvD2
</text>
<text class="black" dominant-baseline="middle" text-anchor="middle" x="100.77183" y="61.196712">
vF2
</text>
<text class="black" dominant-baseline="middle" text-anchor="middle" x="110.384445" y="58.44034">
vG2
</text>
<text class="black" dominant-baseline="middle" text-anchor="middle" x="119.99706" y="55.683964">
vA2
</text>
<text class="black" dominant-baseline="middle" text-anchor="middle" x="129.60968" y="52.92759">
vB2
</text>
<text class="black" dominant-baseline="middle" text-anchor="middle" x="139.2223" y="50.17122">
D3
</text>
<text class="black" dominant-baseline="middle" text-anchor="middle" x="148.83492" y="47.414845">
E3
</text>
<text class="black" dominant-baseline="middle" text-anchor="middle" x="158.44753" y="44.65847">
F3
</text>
<text class="black" dominant-baseline="middle" text-anchor="middle" x="168.06015" y="41.902096">
G3
</text>
<text class="black" dominant-baseline="middle" text-anchor="middle" x="177.67276" y="39.14572">
A3
</text>
<text class="black" dominant-baseline="middle" text-anchor="middle" x="187.28539" y="36.389347">
B3
</text>
<text class="black" dominant-baseline="middle" text-anchor="middle" x="196.898" y="33.632973">
C4
</text>
<text class="black" dominant-baseline="middle" text-anchor="middle" x="206.51062" y="30.876598">
D4
</text>
<text class="black" dominant-baseline="middle" text-anchor="middle" x="216.12323" y="28.120224">
^F4
</text>
<text class="black" dominant-baseline="middle" text-anchor="middle" x="225.73586" y="25.363853">
^G4
</text>
<text class="black" dominant-baseline="middle" text-anchor="middle" x="235.34846" y="22.60748">
^A4
</text>
<text class="black" dominant-baseline="middle" text-anchor="middle" x="244.96109" y="19.851105">
^B4
</text>
<text class="black" dominant-baseline="middle" text-anchor="middle" x="254.5737" y="17.094734">
^^D5
</text>
<text class="black" dominant-baseline="middle" text-anchor="middle" x="264.18634" y="14.338356">
^^E5
</text>
<text class="black" dominant-baseline="middle" text-anchor="middle" x="273.79895" y="11.581985">
^^F5
</text>
<text class="black" dominant-baseline="middle" text-anchor="middle" x="283.41156" y="8.825607">
^^G5
</text>
<text class="black" dominant-baseline="middle" text-anchor="middle" x="293.02417" y="6.0692368">
^^A5
</text>
<text class="black" dominant-baseline="middle" text-anchor="middle" x="302.6368" y="3.3128586">
^^B5
</text>
<text class="black" dominant-baseline="middle" text-anchor="middle" x="98.352615" y="70.899666">
vvA1
</text>
<text class="black" dominant-baseline="middle" text-anchor="middle" x="107.96523" y="68.143295">
vC1
</text>
<text class="black" dominant-baseline="middle" text-anchor="middle" x="117.57785" y="65.38692">
vD2
</text>
<text class="black" dominant-baseline="middle" text-anchor="middle" x="127.19047" y="62.630547">
vE2
</text>
<text class="black" dominant-baseline="middle" text-anchor="middle" x="136.80309" y="59.874172">
G2
</text>
<text class="black" dominant-baseline="middle" text-anchor="middle" x="146.41571" y="57.117798">
A2
</text>
<text class="black" dominant-baseline="middle" text-anchor="middle" x="156.02832" y="54.361423">
B2
</text>
<text class="black" dominant-baseline="middle" text-anchor="middle" x="165.64093" y="51.60505">
C3
</text>
<text class="black" dominant-baseline="middle" text-anchor="middle" x="175.25354" y="48.848675">
D3
</text>
<text class="black" dominant-baseline="middle" text-anchor="middle" x="184.86618" y="46.092304">
E3
</text>
<text class="black" dominant-baseline="middle" text-anchor="middle" x="194.47879" y="43.33593">
F3
</text>
<text class="black" dominant-baseline="middle" text-anchor="middle" x="204.0914" y="40.579556">
G3
</text>
<text class="black" dominant-baseline="middle" text-anchor="middle" x="213.70401" y="37.82318">
A3
</text>
<text class="black" dominant-baseline="middle" text-anchor="middle" x="223.31662" y="35.066807">
^C4
</text>
<text class="black" dominant-baseline="middle" text-anchor="middle" x="232.92926" y="32.310432">
^D4
</text>
<text class="black" dominant-baseline="middle" text-anchor="middle" x="242.54187" y="29.554058">
^E4
</text>
<text class="black" dominant-baseline="middle" text-anchor="middle" x="252.15448" y="26.797684">
^^G4
</text>
<text class="black" dominant-baseline="middle" text-anchor="middle" x="261.7671" y="24.041313">
^^A4
</text>
<text class="black" dominant-baseline="middle" text-anchor="middle" x="271.37973" y="21.284935">
^^B4
</text>
<text class="black" dominant-baseline="middle" text-anchor="middle" x="280.99234" y="18.528564">
^^C5
</text>
<text class="black" dominant-baseline="middle" text-anchor="middle" x="290.60495" y="15.772186">
^^D5
</text>
<text class="black" dominant-baseline="middle" text-anchor="middle" x="300.2176" y="13.015816">
^^E5
</text>
<text class="black" dominant-baseline="middle" text-anchor="middle" x="309.8302" y="10.259445">
vvG5
</text>
<text class="black" dominant-baseline="middle" text-anchor="middle" x="124.77125" y="72.33351">
vA1
</text>
<text class="black" dominant-baseline="middle" text-anchor="middle" x="134.38387" y="69.57713">
vB1
</text>
<text class="black" dominant-baseline="middle" text-anchor="middle" x="143.99648" y="66.82076">
D2
</text>
<text class="black" dominant-baseline="middle" text-anchor="middle" x="153.6091" y="64.06439">
E2
</text>
<text class="black" dominant-baseline="middle" text-anchor="middle" x="163.22171" y="61.308014">
F2
</text>
<text class="black" dominant-baseline="middle" text-anchor="middle" x="172.83434" y="58.55164">
G2
</text>
<text class="black" dominant-baseline="middle" text-anchor="middle" x="182.44695" y="55.795265">
A2
</text>
<text class="black" dominant-baseline="middle" text-anchor="middle" x="192.05957" y="53.03889">
B2
</text>
<text class="black" dominant-baseline="middle" text-anchor="middle" x="201.67218" y="50.282516">
C3
</text>
<text class="black" dominant-baseline="middle" text-anchor="middle" x="211.2848" y="47.526142">
D3
</text>
<text class="black" dominant-baseline="middle" text-anchor="middle" x="220.89742" y="44.769768">
^F3
</text>
<text class="black" dominant-baseline="middle" text-anchor="middle" x="230.51004" y="42.013397">
^G3
</text>
<text class="black" dominant-baseline="middle" text-anchor="middle" x="240.12265" y="39.257023">
^A3
</text>
<text class="black" dominant-baseline="middle" text-anchor="middle" x="249.73528" y="36.50065">
^B3
</text>
<text class="black" dominant-baseline="middle" text-anchor="middle" x="259.34787" y="33.744278">
^^D4
</text>
<text class="black" dominant-baseline="middle" text-anchor="middle" x="268.9605" y="30.9879">
^^E4
</text>
<text class="black" dominant-baseline="middle" text-anchor="middle" x="278.57312" y="28.23153">
^^F4
</text>
<text class="black" dominant-baseline="middle" text-anchor="middle" x="288.18573" y="25.475151">
^^G4
</text>
<text class="black" dominant-baseline="middle" text-anchor="middle" x="297.79834" y="22.71878">
^^A4
</text>
<text class="black" dominant-baseline="middle" text-anchor="middle" x="307.41098" y="19.962402">
^^B4
</text>
<text class="black" dominant-baseline="middle" text-anchor="middle" x="160.80249" y="71.010956">
B1
</text>
<text class="black" dominant-baseline="middle" text-anchor="middle" x="170.41512" y="68.254585">
C2
</text>
<text class="black" dominant-baseline="middle" text-anchor="middle" x="180.02773" y="65.498215">
D2
</text>
<text class="black" dominant-baseline="middle" text-anchor="middle" x="189.64035" y="62.74184">
E2
</text>
<text class="black" dominant-baseline="middle" text-anchor="middle" x="199.25296" y="59.985466">
F2
</text>
<text class="black" dominant-baseline="middle" text-anchor="middle" x="208.86559" y="57.22909">
G2
</text>
<text class="black" dominant-baseline="middle" text-anchor="middle" x="218.4782" y="54.472717">
A2
</text>
<text class="black" dominant-baseline="middle" text-anchor="middle" x="228.0908" y="51.716343">
^C3
</text>
<text class="black" dominant-baseline="middle" text-anchor="middle" x="237.70343" y="48.95997">
^D3
</text>
<text class="black" dominant-baseline="middle" text-anchor="middle" x="247.31604" y="46.203594">
^E3
</text>
<text class="black" dominant-baseline="middle" text-anchor="middle" x="256.92865" y="43.44722">
^^G3
</text>
<text class="black" dominant-baseline="middle" text-anchor="middle" x="266.54126" y="40.69085">
^^A3
</text>
<text class="black" dominant-baseline="middle" text-anchor="middle" x="276.1539" y="37.93447">
^^B3
</text>
<text class="black" dominant-baseline="middle" text-anchor="middle" x="285.7665" y="35.1781">
^^C4
</text>
<text class="black" dominant-baseline="middle" text-anchor="middle" x="295.37912" y="32.421722">
^^D4
</text>
<text class="black" dominant-baseline="middle" text-anchor="middle" x="304.99176" y="29.665352">
^^E4
</text>
<text class="black" dominant-baseline="middle" text-anchor="middle" x="314.60437" y="26.908981">
vvG4
</text>
<text class="black" dominant-baseline="middle" text-anchor="middle" x="187.22113" y="72.4448">
A1
</text>
<text class="black" dominant-baseline="middle" text-anchor="middle" x="196.83374" y="69.68843">
B1
</text>
<text class="black" dominant-baseline="middle" text-anchor="middle" x="206.44635" y="66.93205">
C2
</text>
<text class="black" dominant-baseline="middle" text-anchor="middle" x="216.05899" y="64.175674">
D2
</text>
<text class="black" dominant-baseline="middle" text-anchor="middle" x="225.6716" y="61.419304">
^F2
</text>
<text class="black" dominant-baseline="middle" text-anchor="middle" x="235.28421" y="58.662933">
^G2
</text>
<text class="black" dominant-baseline="middle" text-anchor="middle" x="244.89682" y="55.90656">
^A2
</text>
<text class="black" dominant-baseline="middle" text-anchor="middle" x="254.50946" y="53.150185">
^B2
</text>
<text class="black" dominant-baseline="middle" text-anchor="middle" x="264.12207" y="50.393814">
^^D3
</text>
<text class="black" dominant-baseline="middle" text-anchor="middle" x="273.73468" y="47.637436">
^^E3
</text>
<text class="black" dominant-baseline="middle" text-anchor="middle" x="283.3473" y="44.881065">
^^F3
</text>
<text class="black" dominant-baseline="middle" text-anchor="middle" x="292.9599" y="42.124687">
^^G3
</text>
<text class="black" dominant-baseline="middle" text-anchor="middle" x="302.5725" y="39.368317">
^^A3
</text>
<text class="black" dominant-baseline="middle" text-anchor="middle" x="312.18515" y="36.61194">
^^B3
</text>
<text class="black" dominant-baseline="middle" text-anchor="middle" x="223.25238" y="71.12226">
A1
</text>
<text class="black" dominant-baseline="middle" text-anchor="middle" x="232.86499" y="68.36589">
^C2
</text>
<text class="black" dominant-baseline="middle" text-anchor="middle" x="242.47762" y="65.60951">
^D2
</text>
<text class="black" dominant-baseline="middle" text-anchor="middle" x="252.09023" y="62.853138">
^E2
</text>
<text class="black" dominant-baseline="middle" text-anchor="middle" x="261.70285" y="60.096764">
^^G2
</text>
<text class="black" dominant-baseline="middle" text-anchor="middle" x="271.31546" y="57.340393">
^^A2
</text>
<text class="black" dominant-baseline="middle" text-anchor="middle" x="280.92807" y="54.584015">
^^B2
</text>
<text class="black" dominant-baseline="middle" text-anchor="middle" x="290.54068" y="51.827644">
^^C3
</text>
<text class="black" dominant-baseline="middle" text-anchor="middle" x="300.1533" y="49.071266">
^^D3
</text>
<text class="black" dominant-baseline="middle" text-anchor="middle" x="309.76593" y="46.314896">
^^E3
</text>
<text class="black" dominant-baseline="middle" text-anchor="middle" x="319.37854" y="43.558525">
vvG3
</text>
<text class="black" dominant-baseline="middle" text-anchor="middle" x="249.671" y="72.55609">
^A1
</text>
<text class="black" dominant-baseline="middle" text-anchor="middle" x="259.28363" y="69.79972">
^B1
</text>
<text class="black" dominant-baseline="middle" text-anchor="middle" x="268.89624" y="67.04335">
^^D2
</text>
<text class="black" dominant-baseline="middle" text-anchor="middle" x="278.50885" y="64.28697">
^^E2
</text>
<text class="black" dominant-baseline="middle" text-anchor="middle" x="288.12146" y="61.5306">
^^F2
</text>
<text class="black" dominant-baseline="middle" text-anchor="middle" x="297.73407" y="58.774223">
^^G2
</text>
<text class="black" dominant-baseline="middle" text-anchor="middle" x="307.34668" y="56.017853">
^^A2
</text>
<text class="black" dominant-baseline="middle" text-anchor="middle" x="316.95935" y="53.261475">
^^B2
</text>
<text class="black" dominant-baseline="middle" text-anchor="middle" x="285.70227" y="71.23357">
^^B1
</text>
<text class="black" dominant-baseline="middle" text-anchor="middle" x="295.31488" y="68.477196">
^^C2
</text>
<text class="black" dominant-baseline="middle" text-anchor="middle" x="304.9275" y="65.72082">
^^D2
</text>
<text class="black" dominant-baseline="middle" text-anchor="middle" x="314.54013" y="62.964447">
^^E2
</text>
<text class="black" dominant-baseline="middle" text-anchor="middle" x="324.15274" y="60.208076">
vvG2
</text>
<text class="black" dominant-baseline="middle" text-anchor="middle" x="312.12088" y="72.66739">
^^A1
</text>
<text class="black" dominant-baseline="middle" text-anchor="middle" x="321.73352" y="69.91101">
^^B1
</text>
</svg>